solid CATIA STL
  facet normal  9.975719e-001 -6.964399e-002  0.000000e+000
    outer loop
      vertex  1.880446e+001 -1.696940e+001 -1.443439e+001
      vertex  1.892286e+001 -1.527353e+001 -1.443439e+001
      vertex  1.880446e+001 -1.696940e+001  7.896561e+001
    endloop
  endfacet
  facet normal  9.975719e-001 -6.964399e-002  0.000000e+000
    outer loop
      vertex  1.880446e+001 -1.696940e+001  7.896561e+001
      vertex  1.892286e+001 -1.527353e+001 -1.443439e+001
      vertex  1.892286e+001 -1.527353e+001  7.896561e+001
    endloop
  endfacet
  facet normal  1.670885e-001  9.859418e-001  0.000000e+000
    outer loop
      vertex  1.818052e+001 -1.441975e+001 -1.443439e+001
      vertex  1.818052e+001 -1.441975e+001  7.896561e+001
      vertex  1.833514e+001 -1.444596e+001 -1.443439e+001
    endloop
  endfacet
  facet normal  1.670885e-001  9.859418e-001  -0.000000e+000
    outer loop
      vertex  1.833514e+001 -1.444596e+001 -1.443439e+001
      vertex  1.818052e+001 -1.441975e+001  7.896561e+001
      vertex  1.833514e+001 -1.444596e+001  7.896561e+001
    endloop
  endfacet
  facet normal  3.562270e-001  9.343995e-001  0.000000e+000
    outer loop
      vertex  1.833514e+001 -1.444596e+001 -1.443439e+001
      vertex  1.833514e+001 -1.444596e+001  7.896561e+001
      vertex  1.848168e+001 -1.450182e+001 -1.443439e+001
    endloop
  endfacet
  facet normal  3.562270e-001  9.343995e-001  -0.000000e+000
    outer loop
      vertex  1.848168e+001 -1.450182e+001 -1.443439e+001
      vertex  1.833514e+001 -1.444596e+001  7.896561e+001
      vertex  1.848168e+001 -1.450182e+001  7.896561e+001
    endloop
  endfacet
  facet normal  5.316749e-001  8.469485e-001  0.000000e+000
    outer loop
      vertex  1.848168e+001 -1.450182e+001 -1.443439e+001
      vertex  1.848168e+001 -1.450182e+001  7.896561e+001
      vertex  1.861450e+001 -1.458520e+001 -1.443439e+001
    endloop
  endfacet
  facet normal  5.316749e-001  8.469485e-001  -0.000000e+000
    outer loop
      vertex  1.861450e+001 -1.458520e+001 -1.443439e+001
      vertex  1.848168e+001 -1.450182e+001  7.896561e+001
      vertex  1.861450e+001 -1.458520e+001  7.896561e+001
    endloop
  endfacet
  facet normal  6.866889e-001  7.269515e-001  0.000000e+000
    outer loop
      vertex  1.861450e+001 -1.458520e+001 -1.443439e+001
      vertex  1.861450e+001 -1.458520e+001  7.896561e+001
      vertex  1.872851e+001 -1.469289e+001 -1.443439e+001
    endloop
  endfacet
  facet normal  6.866889e-001  7.269515e-001  -0.000000e+000
    outer loop
      vertex  1.872851e+001 -1.469289e+001 -1.443439e+001
      vertex  1.861450e+001 -1.458520e+001  7.896561e+001
      vertex  1.872851e+001 -1.469289e+001  7.896561e+001
    endloop
  endfacet
  facet normal  8.153120e-001  5.790220e-001  0.000000e+000
    outer loop
      vertex  1.872851e+001 -1.469289e+001 -1.443439e+001
      vertex  1.872851e+001 -1.469289e+001  7.896561e+001
      vertex  1.881931e+001 -1.482076e+001 -1.443439e+001
    endloop
  endfacet
  facet normal  8.153120e-001  5.790220e-001  -0.000000e+000
    outer loop
      vertex  1.881931e+001 -1.482076e+001 -1.443439e+001
      vertex  1.872851e+001 -1.469289e+001  7.896561e+001
      vertex  1.881931e+001 -1.482076e+001  7.896561e+001
    endloop
  endfacet
  facet normal  9.126114e-001  4.088280e-001  0.000000e+000
    outer loop
      vertex  1.881931e+001 -1.482076e+001 -1.443439e+001
      vertex  1.881931e+001 -1.482076e+001  7.896561e+001
      vertex  1.888343e+001 -1.496388e+001 -1.443439e+001
    endloop
  endfacet
  facet normal  9.126114e-001  4.088280e-001  -0.000000e+000
    outer loop
      vertex  1.888343e+001 -1.496388e+001 -1.443439e+001
      vertex  1.881931e+001 -1.482076e+001  7.896561e+001
      vertex  1.888343e+001 -1.496388e+001  7.896561e+001
    endloop
  endfacet
  facet normal  9.748339e-001  2.229325e-001  0.000000e+000
    outer loop
      vertex  1.888343e+001 -1.496388e+001 -1.443439e+001
      vertex  1.888343e+001 -1.496388e+001  7.896561e+001
      vertex  1.891839e+001 -1.511676e+001 -1.443439e+001
    endloop
  endfacet
  facet normal  9.748339e-001  2.229325e-001  -0.000000e+000
    outer loop
      vertex  1.891839e+001 -1.511676e+001 -1.443439e+001
      vertex  1.888343e+001 -1.496388e+001  7.896561e+001
      vertex  1.891839e+001 -1.511676e+001  7.896561e+001
    endloop
  endfacet
  facet normal  9.995946e-001  2.847141e-002  0.000000e+000
    outer loop
      vertex  1.891839e+001 -1.511676e+001 -1.443439e+001
      vertex  1.891839e+001 -1.511676e+001  7.896561e+001
      vertex  1.892286e+001 -1.527353e+001 -1.443439e+001
    endloop
  endfacet
  facet normal  9.995946e-001  2.847141e-002  -0.000000e+000
    outer loop
      vertex  1.892286e+001 -1.527353e+001 -1.443439e+001
      vertex  1.891839e+001 -1.511676e+001  7.896561e+001
      vertex  1.892286e+001 -1.527353e+001  7.896561e+001
    endloop
  endfacet
  facet normal  0.000000e+000  0.000000e+000 -1.000000e+000
    outer loop
      vertex  1.285028e+001  1.357434e+001 -1.443439e+001
      vertex  5.593306e+000  1.343712e+001 -1.443439e+001
      vertex  1.516812e+001  1.405268e+001 -1.443439e+001
    endloop
  endfacet
  facet normal  0.000000e+000  0.000000e+000 -1.000000e+000
    outer loop
      vertex  5.593306e+000  1.343712e+001 -1.443439e+001
      vertex  1.761695e+001  1.438041e+001 -1.443439e+001
      vertex  1.516812e+001  1.405268e+001 -1.443439e+001
    endloop
  endfacet
  facet normal  0.000000e+000  0.000000e+000 -1.000000e+000
    outer loop
      vertex  1.761695e+001  1.438041e+001 -1.443439e+001
      vertex  5.593306e+000  1.343712e+001 -1.443439e+001
      vertex  7.656093e+000  1.446238e+001 -1.443439e+001
    endloop
  endfacet
  facet normal  0.000000e+000  0.000000e+000 -1.000000e+000
    outer loop
      vertex  1.761695e+001  1.438041e+001 -1.443439e+001
      vertex  7.656093e+000  1.446238e+001 -1.443439e+001
      vertex  1.833514e+001  1.444596e+001 -1.443439e+001
    endloop
  endfacet
  facet normal  0.000000e+000  0.000000e+000 -9.999999e-001
    outer loop
      vertex  1.761695e+001  1.438041e+001 -1.443439e+001
      vertex  1.833514e+001  1.444596e+001 -1.443439e+001
      vertex  1.818052e+001  1.441975e+001 -1.443439e+001
    endloop
  endfacet
  facet normal  0.000000e+000  0.000000e+000 -1.000000e+000
    outer loop
      vertex  1.892286e+001  1.527353e+001 -1.443439e+001
      vertex  9.880110e+000  1.531799e+001 -1.443439e+001
      vertex  1.224954e+001  1.600304e+001 -1.443439e+001
    endloop
  endfacet
  facet normal  0.000000e+000  0.000000e+000 -1.000000e+000
    outer loop
      vertex  1.892286e+001  1.527353e+001 -1.443439e+001
      vertex  1.224954e+001  1.600304e+001 -1.443439e+001
      vertex  1.474915e+001  1.651890e+001 -1.443439e+001
    endloop
  endfacet
  facet normal  0.000000e+000  0.000000e+000 -1.000000e+000
    outer loop
      vertex  1.892286e+001  1.527353e+001 -1.443439e+001
      vertex  1.474915e+001  1.651890e+001 -1.443439e+001
      vertex  1.736383e+001  1.686882e+001 -1.443439e+001
    endloop
  endfacet
  facet normal  0.000000e+000  0.000000e+000 -1.000000e+000
    outer loop
      vertex  1.892286e+001  1.527353e+001 -1.443439e+001
      vertex  1.736383e+001  1.686882e+001 -1.443439e+001
      vertex  1.880446e+001  1.696940e+001 -1.443439e+001
    endloop
  endfacet
  facet normal  0.000000e+000  -0.000000e+000 -1.000000e+000
    outer loop
      vertex  7.656093e+000  1.446238e+001 -1.443439e+001
      vertex  9.880110e+000  1.531799e+001 -1.443439e+001
      vertex  1.892286e+001  1.527353e+001 -1.443439e+001
    endloop
  endfacet
  facet normal  0.000000e+000  0.000000e+000 -1.000000e+000
    outer loop
      vertex  7.656093e+000  1.446238e+001 -1.443439e+001
      vertex  1.892286e+001  1.527353e+001 -1.443439e+001
      vertex  1.891839e+001  1.511676e+001 -1.443439e+001
    endloop
  endfacet
  facet normal  0.000000e+000  0.000000e+000 -1.000000e+000
    outer loop
      vertex  7.656093e+000  1.446238e+001 -1.443439e+001
      vertex  1.891839e+001  1.511676e+001 -1.443439e+001
      vertex  1.888343e+001  1.496388e+001 -1.443439e+001
    endloop
  endfacet
  facet normal  0.000000e+000  0.000000e+000 -1.000000e+000
    outer loop
      vertex  7.656093e+000  1.446238e+001 -1.443439e+001
      vertex  1.888343e+001  1.496388e+001 -1.443439e+001
      vertex  1.881931e+001  1.482076e+001 -1.443439e+001
    endloop
  endfacet
  facet normal  0.000000e+000  0.000000e+000 -1.000000e+000
    outer loop
      vertex  7.656093e+000  1.446238e+001 -1.443439e+001
      vertex  1.881931e+001  1.482076e+001 -1.443439e+001
      vertex  1.872851e+001  1.469289e+001 -1.443439e+001
    endloop
  endfacet
  facet normal  0.000000e+000  0.000000e+000 -1.000000e+000
    outer loop
      vertex  7.656093e+000  1.446238e+001 -1.443439e+001
      vertex  1.872851e+001  1.469289e+001 -1.443439e+001
      vertex  1.861450e+001  1.458520e+001 -1.443439e+001
    endloop
  endfacet
  facet normal  0.000000e+000  0.000000e+000 -1.000000e+000
    outer loop
      vertex  7.656093e+000  1.446238e+001 -1.443439e+001
      vertex  1.861450e+001  1.458520e+001 -1.443439e+001
      vertex  1.848168e+001  1.450182e+001 -1.443439e+001
    endloop
  endfacet
  facet normal  0.000000e+000  0.000000e+000 -1.000000e+000
    outer loop
      vertex  7.656093e+000  1.446238e+001 -1.443439e+001
      vertex  1.848168e+001  1.450182e+001 -1.443439e+001
      vertex  1.833514e+001  1.444596e+001 -1.443439e+001
    endloop
  endfacet
  facet normal  0.000000e+000  0.000000e+000 -9.999999e-001
    outer loop
      vertex  7.656093e+000 -1.446238e+001 -1.443439e+001
      vertex  5.593306e+000 -1.343712e+001 -1.443439e+001
      vertex  1.285028e+001 -1.357434e+001 -1.443439e+001
    endloop
  endfacet
  facet normal  0.000000e+000  -0.000000e+000 -1.000000e+000
    outer loop
      vertex  7.656093e+000 -1.446238e+001 -1.443439e+001
      vertex  1.285028e+001 -1.357434e+001 -1.443439e+001
      vertex  1.516812e+001 -1.405268e+001 -1.443439e+001
    endloop
  endfacet
  facet normal  0.000000e+000  -0.000000e+000 -9.999999e-001
    outer loop
      vertex  7.656093e+000 -1.446238e+001 -1.443439e+001
      vertex  1.516812e+001 -1.405268e+001 -1.443439e+001
      vertex  1.761695e+001 -1.438041e+001 -1.443439e+001
    endloop
  endfacet
  facet normal  0.000000e+000  -0.000000e+000 -1.000000e+000
    outer loop
      vertex  7.656093e+000 -1.446238e+001 -1.443439e+001
      vertex  1.761695e+001 -1.438041e+001 -1.443439e+001
      vertex  1.818052e+001 -1.441975e+001 -1.443439e+001
    endloop
  endfacet
  facet normal  0.000000e+000  -0.000000e+000 -1.000000e+000
    outer loop
      vertex  7.656093e+000 -1.446238e+001 -1.443439e+001
      vertex  1.818052e+001 -1.441975e+001 -1.443439e+001
      vertex  1.833514e+001 -1.444596e+001 -1.443439e+001
    endloop
  endfacet
  facet normal  0.000000e+000  -0.000000e+000 -1.000000e+000
    outer loop
      vertex  7.656093e+000 -1.446238e+001 -1.443439e+001
      vertex  1.833514e+001 -1.444596e+001 -1.443439e+001
      vertex  1.848168e+001 -1.450182e+001 -1.443439e+001
    endloop
  endfacet
  facet normal  -0.000000e+000  0.000000e+000 -1.000000e+000
    outer loop
      vertex  7.656093e+000 -1.446238e+001 -1.443439e+001
      vertex  1.848168e+001 -1.450182e+001 -1.443439e+001
      vertex  9.880110e+000 -1.531799e+001 -1.443439e+001
    endloop
  endfacet
  facet normal  0.000000e+000  -0.000000e+000 -1.000000e+000
    outer loop
      vertex  9.880110e+000 -1.531799e+001 -1.443439e+001
      vertex  1.848168e+001 -1.450182e+001 -1.443439e+001
      vertex  1.861450e+001 -1.458520e+001 -1.443439e+001
    endloop
  endfacet
  facet normal  0.000000e+000  -0.000000e+000 -1.000000e+000
    outer loop
      vertex  9.880110e+000 -1.531799e+001 -1.443439e+001
      vertex  1.861450e+001 -1.458520e+001 -1.443439e+001
      vertex  1.872851e+001 -1.469289e+001 -1.443439e+001
    endloop
  endfacet
  facet normal  0.000000e+000  -0.000000e+000 -9.999999e-001
    outer loop
      vertex  9.880110e+000 -1.531799e+001 -1.443439e+001
      vertex  1.872851e+001 -1.469289e+001 -1.443439e+001
      vertex  1.881931e+001 -1.482076e+001 -1.443439e+001
    endloop
  endfacet
  facet normal  0.000000e+000  -0.000000e+000 -1.000000e+000
    outer loop
      vertex  9.880110e+000 -1.531799e+001 -1.443439e+001
      vertex  1.881931e+001 -1.482076e+001 -1.443439e+001
      vertex  1.888343e+001 -1.496388e+001 -1.443439e+001
    endloop
  endfacet
  facet normal  0.000000e+000  -0.000000e+000 -1.000000e+000
    outer loop
      vertex  9.880110e+000 -1.531799e+001 -1.443439e+001
      vertex  1.888343e+001 -1.496388e+001 -1.443439e+001
      vertex  1.891839e+001 -1.511676e+001 -1.443439e+001
    endloop
  endfacet
  facet normal  0.000000e+000  -0.000000e+000 -9.999999e-001
    outer loop
      vertex  9.880110e+000 -1.531799e+001 -1.443439e+001
      vertex  1.891839e+001 -1.511676e+001 -1.443439e+001
      vertex  1.892286e+001 -1.527353e+001 -1.443439e+001
    endloop
  endfacet
  facet normal  0.000000e+000  0.000000e+000 -1.000000e+000
    outer loop
      vertex  9.880110e+000 -1.531799e+001 -1.443439e+001
      vertex  1.892286e+001 -1.527353e+001 -1.443439e+001
      vertex  1.880446e+001 -1.696940e+001 -1.443439e+001
    endloop
  endfacet
  facet normal  0.000000e+000  0.000000e+000 -1.000000e+000
    outer loop
      vertex  1.880446e+001 -1.696940e+001 -1.443439e+001
      vertex  1.736383e+001 -1.686882e+001 -1.443439e+001
      vertex  1.474915e+001 -1.651890e+001 -1.443439e+001
    endloop
  endfacet
  facet normal  0.000000e+000  0.000000e+000 -1.000000e+000
    outer loop
      vertex  1.880446e+001 -1.696940e+001 -1.443439e+001
      vertex  1.474915e+001 -1.651890e+001 -1.443439e+001
      vertex  1.224954e+001 -1.600304e+001 -1.443439e+001
    endloop
  endfacet
  facet normal  0.000000e+000  0.000000e+000 -1.000000e+000
    outer loop
      vertex  1.880446e+001 -1.696940e+001 -1.443439e+001
      vertex  1.224954e+001 -1.600304e+001 -1.443439e+001
      vertex  9.880110e+000 -1.531799e+001 -1.443439e+001
    endloop
  endfacet
  facet normal  0.000000e+000  0.000000e+000 -1.000000e+000
    outer loop
      vertex  8.663497e+000  1.217132e+001 -1.443439e+001
      vertex  3.707628e+000  1.224487e+001 -1.443439e+001
      vertex  1.067758e+001  1.294617e+001 -1.443439e+001
    endloop
  endfacet
  facet normal  -0.000000e+000  0.000000e+000 -1.000000e+000
    outer loop
      vertex  1.067758e+001  1.294617e+001 -1.443439e+001
      vertex  3.707628e+000  1.224487e+001 -1.443439e+001
      vertex  5.593306e+000  1.343712e+001 -1.443439e+001
    endloop
  endfacet
  facet normal  0.000000e+000  0.000000e+000 -1.000000e+000
    outer loop
      vertex  1.067758e+001  1.294617e+001 -1.443439e+001
      vertex  5.593306e+000  1.343712e+001 -1.443439e+001
      vertex  1.285028e+001  1.357434e+001 -1.443439e+001
    endloop
  endfacet
  facet normal  0.000000e+000  0.000000e+000 -1.000000e+000
    outer loop
      vertex  3.696657e+000  9.033154e+000 -1.443439e+001
      vertex  5.366386e-001  9.379341e+000 -1.443439e+001
      vertex  5.161538e+000  1.020634e+001 -1.443439e+001
    endloop
  endfacet
  facet normal  -0.000000e+000  0.000000e+000 -1.000000e+000
    outer loop
      vertex  5.161538e+000  1.020634e+001 -1.443439e+001
      vertex  5.366386e-001  9.379341e+000 -1.443439e+001
      vertex  2.016054e+000  1.089013e+001 -1.443439e+001
    endloop
  endfacet
  facet normal  0.000000e+000  0.000000e+000 -1.000000e+000
    outer loop
      vertex  5.161538e+000  1.020634e+001 -1.443439e+001
      vertex  2.016054e+000  1.089013e+001 -1.443439e+001
      vertex  6.820891e+000  1.125549e+001 -1.443439e+001
    endloop
  endfacet
  facet normal  -0.000000e+000  0.000000e+000 -1.000000e+000
    outer loop
      vertex  6.820891e+000  1.125549e+001 -1.443439e+001
      vertex  2.016054e+000  1.089013e+001 -1.443439e+001
      vertex  3.707628e+000  1.224487e+001 -1.443439e+001
    endloop
  endfacet
  facet normal  0.000000e+000  0.000000e+000 -1.000000e+000
    outer loop
      vertex  6.820891e+000  1.125549e+001 -1.443439e+001
      vertex  3.707628e+000  1.224487e+001 -1.443439e+001
      vertex  8.663497e+000  1.217132e+001 -1.443439e+001
    endloop
  endfacet
  facet normal  0.000000e+000  0.000000e+000 -1.000000e+000
    outer loop
      vertex -2.495198e-002  3.315687e+000 -1.443439e+001
      vertex -2.427432e+000  4.031235e+000 -1.443439e+001
      vertex  5.677229e-001  4.876018e+000 -1.443439e+001
    endloop
  endfacet
  facet normal  -0.000000e+000  0.000000e+000 -9.999999e-001
    outer loop
      vertex  5.677229e-001  4.876018e+000 -1.443439e+001
      vertex -2.427432e+000  4.031235e+000 -1.443439e+001
      vertex -1.705213e+000  5.932615e+000 -1.443439e+001
    endloop
  endfacet
  facet normal  0.000000e+000  0.000000e+000 -1.000000e+000
    outer loop
      vertex  5.677229e-001  4.876018e+000 -1.443439e+001
      vertex -1.705213e+000  5.932615e+000 -1.443439e+001
      vertex  1.390667e+000  6.356687e+000 -1.443439e+001
    endloop
  endfacet
  facet normal  -0.000000e+000  0.000000e+000 -1.000000e+000
    outer loop
      vertex  1.390667e+000  6.356687e+000 -1.443439e+001
      vertex -1.705213e+000  5.932615e+000 -1.443439e+001
      vertex -7.106369e-001  7.722091e+000 -1.443439e+001
    endloop
  endfacet
  facet normal  0.000000e+000  0.000000e+000 -1.000000e+000
    outer loop
      vertex  1.390667e+000  6.356687e+000 -1.443439e+001
      vertex -7.106369e-001  7.722091e+000 -1.443439e+001
      vertex  2.436473e+000  7.746246e+000 -1.443439e+001
    endloop
  endfacet
  facet normal  -0.000000e+000  0.000000e+000 -1.000000e+000
    outer loop
      vertex  2.436473e+000  7.746246e+000 -1.443439e+001
      vertex -7.106369e-001  7.722091e+000 -1.443439e+001
      vertex  5.366386e-001  9.379341e+000 -1.443439e+001
    endloop
  endfacet
  facet normal  0.000000e+000  0.000000e+000 -1.000000e+000
    outer loop
      vertex  2.436473e+000  7.746246e+000 -1.443439e+001
      vertex  5.366386e-001  9.379341e+000 -1.443439e+001
      vertex  3.696657e+000  9.033154e+000 -1.443439e+001
    endloop
  endfacet
  facet normal  0.000000e+000  0.000000e+000 -1.000000e+000
    outer loop
      vertex  1.390667e+000 -6.356687e+000 -1.443439e+001
      vertex -1.705213e+000 -5.932615e+000 -1.443439e+001
      vertex  5.677229e-001 -4.876018e+000 -1.443439e+001
    endloop
  endfacet
  facet normal  -0.000000e+000  0.000000e+000 -9.999999e-001
    outer loop
      vertex  5.677229e-001 -4.876018e+000 -1.443439e+001
      vertex -1.705213e+000 -5.932615e+000 -1.443439e+001
      vertex -2.427432e+000 -4.031235e+000 -1.443439e+001
    endloop
  endfacet
  facet normal  0.000000e+000  0.000000e+000 -1.000000e+000
    outer loop
      vertex  5.677229e-001 -4.876018e+000 -1.443439e+001
      vertex -2.427432e+000 -4.031235e+000 -1.443439e+001
      vertex -2.495198e-002 -3.315687e+000 -1.443439e+001
    endloop
  endfacet
  facet normal  -0.000000e+000  0.000000e+000 -1.000000e+000
    outer loop
      vertex -2.495198e-002 -3.315687e+000 -1.443439e+001
      vertex -2.427432e+000 -4.031235e+000 -1.443439e+001
      vertex -2.863132e+000 -2.044969e+000 -1.443439e+001
    endloop
  endfacet
  facet normal  0.000000e+000  0.000000e+000 -1.000000e+000
    outer loop
      vertex -2.495198e-002 -3.315687e+000 -1.443439e+001
      vertex -2.863132e+000 -2.044969e+000 -1.443439e+001
      vertex -3.821603e-001 -1.687248e+000 -1.443439e+001
    endloop
  endfacet
  facet normal  -0.000000e+000  0.000000e+000 -1.000000e+000
    outer loop
      vertex -3.821603e-001 -1.687248e+000 -1.443439e+001
      vertex -2.863132e+000 -2.044969e+000 -1.443439e+001
      vertex -3.007463e+000 -5.878269e-010 -1.443439e+001
    endloop
  endfacet
  facet normal  0.000000e+000  0.000000e+000 -1.000000e+000
    outer loop
      vertex -3.821603e-001 -1.687248e+000 -1.443439e+001
      vertex -3.007463e+000 -5.878269e-010 -1.443439e+001
      vertex -5.012438e-001 -4.683038e-010 -1.443439e+001
    endloop
  endfacet
  facet normal  -0.000000e+000  0.000000e+000 -1.000000e+000
    outer loop
      vertex -5.012438e-001 -4.683038e-010 -1.443439e+001
      vertex -3.007463e+000 -5.878269e-010 -1.443439e+001
      vertex -2.863132e+000  2.044969e+000 -1.443439e+001
    endloop
  endfacet
  facet normal  0.000000e+000  0.000000e+000 -1.000000e+000
    outer loop
      vertex -5.012438e-001 -4.683038e-010 -1.443439e+001
      vertex -2.863132e+000  2.044969e+000 -1.443439e+001
      vertex -3.821603e-001  1.687248e+000 -1.443439e+001
    endloop
  endfacet
  facet normal  0.000000e+000  0.000000e+000 -1.000000e+000
    outer loop
      vertex -3.821603e-001  1.687248e+000 -1.443439e+001
      vertex -2.863132e+000  2.044969e+000 -1.443439e+001
      vertex -2.427432e+000  4.031235e+000 -1.443439e+001
    endloop
  endfacet
  facet normal  0.000000e+000  0.000000e+000 -1.000000e+000
    outer loop
      vertex -3.821603e-001  1.687248e+000 -1.443439e+001
      vertex -2.427432e+000  4.031235e+000 -1.443439e+001
      vertex -2.495198e-002  3.315687e+000 -1.443439e+001
    endloop
  endfacet
  facet normal  0.000000e+000  0.000000e+000 -1.000000e+000
    outer loop
      vertex  6.820891e+000 -1.125549e+001 -1.443439e+001
      vertex  2.016054e+000 -1.089013e+001 -1.443439e+001
      vertex  5.161538e+000 -1.020634e+001 -1.443439e+001
    endloop
  endfacet
  facet normal  -0.000000e+000  0.000000e+000 -1.000000e+000
    outer loop
      vertex  5.161538e+000 -1.020634e+001 -1.443439e+001
      vertex  2.016054e+000 -1.089013e+001 -1.443439e+001
      vertex  5.366386e-001 -9.379341e+000 -1.443439e+001
    endloop
  endfacet
  facet normal  0.000000e+000  0.000000e+000 -1.000000e+000
    outer loop
      vertex  5.161538e+000 -1.020634e+001 -1.443439e+001
      vertex  5.366386e-001 -9.379341e+000 -1.443439e+001
      vertex  3.696657e+000 -9.033154e+000 -1.443439e+001
    endloop
  endfacet
  facet normal  -0.000000e+000  0.000000e+000 -1.000000e+000
    outer loop
      vertex  3.696657e+000 -9.033154e+000 -1.443439e+001
      vertex  5.366386e-001 -9.379341e+000 -1.443439e+001
      vertex -7.106369e-001 -7.722091e+000 -1.443439e+001
    endloop
  endfacet
  facet normal  0.000000e+000  0.000000e+000 -1.000000e+000
    outer loop
      vertex  3.696657e+000 -9.033154e+000 -1.443439e+001
      vertex -7.106369e-001 -7.722091e+000 -1.443439e+001
      vertex  2.436473e+000 -7.746246e+000 -1.443439e+001
    endloop
  endfacet
  facet normal  0.000000e+000  0.000000e+000 -1.000000e+000
    outer loop
      vertex  2.436473e+000 -7.746246e+000 -1.443439e+001
      vertex -7.106369e-001 -7.722091e+000 -1.443439e+001
      vertex -1.705213e+000 -5.932615e+000 -1.443439e+001
    endloop
  endfacet
  facet normal  0.000000e+000  0.000000e+000 -1.000000e+000
    outer loop
      vertex  2.436473e+000 -7.746246e+000 -1.443439e+001
      vertex -1.705213e+000 -5.932615e+000 -1.443439e+001
      vertex  1.390667e+000 -6.356687e+000 -1.443439e+001
    endloop
  endfacet
  facet normal  0.000000e+000  0.000000e+000 -1.000000e+000
    outer loop
      vertex  1.285028e+001 -1.357434e+001 -1.443439e+001
      vertex  5.593306e+000 -1.343712e+001 -1.443439e+001
      vertex  1.067758e+001 -1.294617e+001 -1.443439e+001
    endloop
  endfacet
  facet normal  -0.000000e+000  0.000000e+000 -1.000000e+000
    outer loop
      vertex  1.067758e+001 -1.294617e+001 -1.443439e+001
      vertex  5.593306e+000 -1.343712e+001 -1.443439e+001
      vertex  3.707628e+000 -1.224487e+001 -1.443439e+001
    endloop
  endfacet
  facet normal  0.000000e+000  0.000000e+000 -1.000000e+000
    outer loop
      vertex  1.067758e+001 -1.294617e+001 -1.443439e+001
      vertex  3.707628e+000 -1.224487e+001 -1.443439e+001
      vertex  8.663497e+000 -1.217132e+001 -1.443439e+001
    endloop
  endfacet
  facet normal  -0.000000e+000  0.000000e+000 -1.000000e+000
    outer loop
      vertex  8.663497e+000 -1.217132e+001 -1.443439e+001
      vertex  3.707628e+000 -1.224487e+001 -1.443439e+001
      vertex  2.016054e+000 -1.089013e+001 -1.443439e+001
    endloop
  endfacet
  facet normal  0.000000e+000  0.000000e+000 -1.000000e+000
    outer loop
      vertex  8.663497e+000 -1.217132e+001 -1.443439e+001
      vertex  2.016054e+000 -1.089013e+001 -1.443439e+001
      vertex  6.820891e+000 -1.125549e+001 -1.443439e+001
    endloop
  endfacet
  facet normal  6.964444e-002  9.975719e-001  0.000000e+000
    outer loop
      vertex  1.818052e+001 -1.441975e+001 -1.443439e+001
      vertex  1.761695e+001 -1.438041e+001 -1.443439e+001
      vertex  1.818052e+001 -1.441975e+001  7.896561e+001
    endloop
  endfacet
  facet normal  6.964444e-002  9.975719e-001  0.000000e+000
    outer loop
      vertex  1.818052e+001 -1.441975e+001  7.896561e+001
      vertex  1.761695e+001 -1.438041e+001 -1.443439e+001
      vertex  1.761695e+001 -1.438041e+001  7.896561e+001
    endloop
  endfacet
  facet normal  9.975719e-001  6.964399e-002  0.000000e+000
    outer loop
      vertex  1.880446e+001  1.696940e+001 -1.443439e+001
      vertex  1.880446e+001  1.696940e+001  7.896561e+001
      vertex  1.892286e+001  1.527353e+001 -1.443439e+001
    endloop
  endfacet
  facet normal  9.975719e-001  6.964399e-002  -0.000000e+000
    outer loop
      vertex  1.892286e+001  1.527353e+001 -1.443439e+001
      vertex  1.880446e+001  1.696940e+001  7.896561e+001
      vertex  1.892286e+001  1.527353e+001  7.896561e+001
    endloop
  endfacet
  facet normal  9.995946e-001 -2.847141e-002  0.000000e+000
    outer loop
      vertex  1.892286e+001  1.527353e+001 -1.443439e+001
      vertex  1.892286e+001  1.527353e+001  7.896561e+001
      vertex  1.891839e+001  1.511676e+001 -1.443439e+001
    endloop
  endfacet
  facet normal  9.995946e-001 -2.847141e-002  0.000000e+000
    outer loop
      vertex  1.891839e+001  1.511676e+001 -1.443439e+001
      vertex  1.892286e+001  1.527353e+001  7.896561e+001
      vertex  1.891839e+001  1.511676e+001  7.896561e+001
    endloop
  endfacet
  facet normal  9.748339e-001 -2.229325e-001  0.000000e+000
    outer loop
      vertex  1.891839e+001  1.511676e+001 -1.443439e+001
      vertex  1.891839e+001  1.511676e+001  7.896561e+001
      vertex  1.888343e+001  1.496388e+001 -1.443439e+001
    endloop
  endfacet
  facet normal  9.748339e-001 -2.229325e-001  0.000000e+000
    outer loop
      vertex  1.888343e+001  1.496388e+001 -1.443439e+001
      vertex  1.891839e+001  1.511676e+001  7.896561e+001
      vertex  1.888343e+001  1.496388e+001  7.896561e+001
    endloop
  endfacet
  facet normal  9.126114e-001 -4.088280e-001  0.000000e+000
    outer loop
      vertex  1.888343e+001  1.496388e+001 -1.443439e+001
      vertex  1.888343e+001  1.496388e+001  7.896561e+001
      vertex  1.881931e+001  1.482076e+001 -1.443439e+001
    endloop
  endfacet
  facet normal  9.126114e-001 -4.088280e-001  0.000000e+000
    outer loop
      vertex  1.881931e+001  1.482076e+001 -1.443439e+001
      vertex  1.888343e+001  1.496388e+001  7.896561e+001
      vertex  1.881931e+001  1.482076e+001  7.896561e+001
    endloop
  endfacet
  facet normal  8.153120e-001 -5.790220e-001  0.000000e+000
    outer loop
      vertex  1.881931e+001  1.482076e+001 -1.443439e+001
      vertex  1.881931e+001  1.482076e+001  7.896561e+001
      vertex  1.872851e+001  1.469289e+001 -1.443439e+001
    endloop
  endfacet
  facet normal  8.153120e-001 -5.790220e-001  0.000000e+000
    outer loop
      vertex  1.872851e+001  1.469289e+001 -1.443439e+001
      vertex  1.881931e+001  1.482076e+001  7.896561e+001
      vertex  1.872851e+001  1.469289e+001  7.896561e+001
    endloop
  endfacet
  facet normal  6.866889e-001 -7.269515e-001  0.000000e+000
    outer loop
      vertex  1.872851e+001  1.469289e+001 -1.443439e+001
      vertex  1.872851e+001  1.469289e+001  7.896561e+001
      vertex  1.861450e+001  1.458520e+001 -1.443439e+001
    endloop
  endfacet
  facet normal  6.866889e-001 -7.269515e-001  0.000000e+000
    outer loop
      vertex  1.861450e+001  1.458520e+001 -1.443439e+001
      vertex  1.872851e+001  1.469289e+001  7.896561e+001
      vertex  1.861450e+001  1.458520e+001  7.896561e+001
    endloop
  endfacet
  facet normal  5.316749e-001 -8.469485e-001  0.000000e+000
    outer loop
      vertex  1.861450e+001  1.458520e+001 -1.443439e+001
      vertex  1.861450e+001  1.458520e+001  7.896561e+001
      vertex  1.848168e+001  1.450182e+001 -1.443439e+001
    endloop
  endfacet
  facet normal  5.316749e-001 -8.469485e-001  0.000000e+000
    outer loop
      vertex  1.848168e+001  1.450182e+001 -1.443439e+001
      vertex  1.861450e+001  1.458520e+001  7.896561e+001
      vertex  1.848168e+001  1.450182e+001  7.896561e+001
    endloop
  endfacet
  facet normal  3.562270e-001 -9.343995e-001  0.000000e+000
    outer loop
      vertex  1.848168e+001  1.450182e+001 -1.443439e+001
      vertex  1.848168e+001  1.450182e+001  7.896561e+001
      vertex  1.833514e+001  1.444596e+001 -1.443439e+001
    endloop
  endfacet
  facet normal  3.562270e-001 -9.343995e-001  0.000000e+000
    outer loop
      vertex  1.833514e+001  1.444596e+001 -1.443439e+001
      vertex  1.848168e+001  1.450182e+001  7.896561e+001
      vertex  1.833514e+001  1.444596e+001  7.896561e+001
    endloop
  endfacet
  facet normal  1.670885e-001 -9.859418e-001  0.000000e+000
    outer loop
      vertex  1.833514e+001  1.444596e+001 -1.443439e+001
      vertex  1.833514e+001  1.444596e+001  7.896561e+001
      vertex  1.818052e+001  1.441975e+001 -1.443439e+001
    endloop
  endfacet
  facet normal  1.670885e-001 -9.859418e-001  0.000000e+000
    outer loop
      vertex  1.818052e+001  1.441975e+001 -1.443439e+001
      vertex  1.833514e+001  1.444596e+001  7.896561e+001
      vertex  1.818052e+001  1.441975e+001  7.896561e+001
    endloop
  endfacet
  facet normal -6.964448e-002  9.975718e-001  0.000000e+000
    outer loop
      vertex  1.736383e+001  1.686882e+001 -1.443439e+001
      vertex  1.736383e+001  1.686882e+001  7.896561e+001
      vertex  1.880446e+001  1.696940e+001 -1.443439e+001
    endloop
  endfacet
  facet normal -6.964448e-002  9.975718e-001  0.000000e+000
    outer loop
      vertex  1.880446e+001  1.696940e+001 -1.443439e+001
      vertex  1.736383e+001  1.686882e+001  7.896561e+001
      vertex  1.880446e+001  1.696940e+001  7.896561e+001
    endloop
  endfacet
  facet normal  6.964444e-002 -9.975719e-001  0.000000e+000
    outer loop
      vertex  1.761695e+001  1.438041e+001 -1.443439e+001
      vertex  1.818052e+001  1.441975e+001 -1.443439e+001
      vertex  1.761695e+001  1.438041e+001  7.896561e+001
    endloop
  endfacet
  facet normal  6.964444e-002 -9.975719e-001  0.000000e+000
    outer loop
      vertex  1.761695e+001  1.438041e+001  7.896561e+001
      vertex  1.818052e+001  1.441975e+001 -1.443439e+001
      vertex  1.818052e+001  1.441975e+001  7.896561e+001
    endloop
  endfacet
  facet normal  1.326481e-001 -9.911631e-001  0.000000e+000
    outer loop
      vertex  1.516812e+001  1.405268e+001 -1.443439e+001
      vertex  1.761695e+001  1.438041e+001 -1.443439e+001
      vertex  1.516812e+001  1.405268e+001  7.896561e+001
    endloop
  endfacet
  facet normal  1.326481e-001 -9.911631e-001  0.000000e+000
    outer loop
      vertex  1.516812e+001  1.405268e+001  7.896561e+001
      vertex  1.761695e+001  1.438041e+001 -1.443439e+001
      vertex  1.761695e+001  1.438041e+001  7.896561e+001
    endloop
  endfacet
  facet normal  2.021147e-001 -9.793618e-001  0.000000e+000
    outer loop
      vertex  1.285028e+001  1.357434e+001 -1.443439e+001
      vertex  1.516812e+001  1.405268e+001 -1.443439e+001
      vertex  1.285028e+001  1.357434e+001  7.896561e+001
    endloop
  endfacet
  facet normal  2.021147e-001 -9.793618e-001  0.000000e+000
    outer loop
      vertex  1.285028e+001  1.357434e+001  7.896561e+001
      vertex  1.516812e+001  1.405268e+001 -1.443439e+001
      vertex  1.516812e+001  1.405268e+001  7.896561e+001
    endloop
  endfacet
  facet normal  2.777443e-001 -9.606550e-001  0.000000e+000
    outer loop
      vertex  1.067758e+001  1.294617e+001 -1.443439e+001
      vertex  1.285028e+001  1.357434e+001 -1.443439e+001
      vertex  1.067758e+001  1.294617e+001  7.896561e+001
    endloop
  endfacet
  facet normal  2.777443e-001 -9.606550e-001  0.000000e+000
    outer loop
      vertex  1.067758e+001  1.294617e+001  7.896561e+001
      vertex  1.285028e+001  1.357434e+001 -1.443439e+001
      vertex  1.285028e+001  1.357434e+001  7.896561e+001
    endloop
  endfacet
  facet normal  3.590611e-001 -9.333141e-001  0.000000e+000
    outer loop
      vertex  8.663497e+000  1.217132e+001 -1.443439e+001
      vertex  1.067758e+001  1.294617e+001 -1.443439e+001
      vertex  8.663497e+000  1.217132e+001  7.896561e+001
    endloop
  endfacet
  facet normal  3.590611e-001 -9.333141e-001  0.000000e+000
    outer loop
      vertex  8.663497e+000  1.217132e+001  7.896561e+001
      vertex  1.067758e+001  1.294617e+001 -1.443439e+001
      vertex  1.067758e+001  1.294617e+001  7.896561e+001
    endloop
  endfacet
  facet normal  4.450825e-001 -8.954895e-001  0.000000e+000
    outer loop
      vertex  6.820891e+000  1.125549e+001 -1.443439e+001
      vertex  8.663497e+000  1.217132e+001 -1.443439e+001
      vertex  6.820891e+000  1.125549e+001  7.896561e+001
    endloop
  endfacet
  facet normal  4.450825e-001 -8.954895e-001  0.000000e+000
    outer loop
      vertex  6.820891e+000  1.125549e+001  7.896561e+001
      vertex  8.663497e+000  1.217132e+001 -1.443439e+001
      vertex  8.663497e+000  1.217132e+001  7.896561e+001
    endloop
  endfacet
  facet normal  5.344064e-001 -8.452278e-001  0.000000e+000
    outer loop
      vertex  5.161538e+000  1.020634e+001 -1.443439e+001
      vertex  6.820891e+000  1.125549e+001 -1.443439e+001
      vertex  5.161538e+000  1.020634e+001  7.896561e+001
    endloop
  endfacet
  facet normal  5.344064e-001 -8.452278e-001  0.000000e+000
    outer loop
      vertex  5.161538e+000  1.020634e+001  7.896561e+001
      vertex  6.820891e+000  1.125549e+001 -1.443439e+001
      vertex  6.820891e+000  1.125549e+001  7.896561e+001
    endloop
  endfacet
  facet normal  6.251123e-001 -7.805347e-001  0.000000e+000
    outer loop
      vertex  3.696657e+000  9.033154e+000 -1.443439e+001
      vertex  5.161538e+000  1.020634e+001 -1.443439e+001
      vertex  3.696657e+000  9.033154e+000  7.896561e+001
    endloop
  endfacet
  facet normal  6.251123e-001 -7.805347e-001  0.000000e+000
    outer loop
      vertex  3.696657e+000  9.033154e+000  7.896561e+001
      vertex  5.161538e+000  1.020634e+001 -1.443439e+001
      vertex  5.161538e+000  1.020634e+001  7.896561e+001
    endloop
  endfacet
  facet normal  7.144865e-001 -6.996493e-001  0.000000e+000
    outer loop
      vertex  2.436473e+000  7.746246e+000 -1.443439e+001
      vertex  3.696657e+000  9.033154e+000 -1.443439e+001
      vertex  2.436473e+000  7.746246e+000  7.896561e+001
    endloop
  endfacet
  facet normal  7.144865e-001 -6.996493e-001  0.000000e+000
    outer loop
      vertex  2.436473e+000  7.746246e+000  7.896561e+001
      vertex  3.696657e+000  9.033154e+000 -1.443439e+001
      vertex  3.696657e+000  9.033154e+000  7.896561e+001
    endloop
  endfacet
  facet normal  7.989951e-001 -6.013375e-001  0.000000e+000
    outer loop
      vertex  1.390667e+000  6.356687e+000 -1.443439e+001
      vertex  2.436473e+000  7.746246e+000 -1.443439e+001
      vertex  1.390667e+000  6.356687e+000  7.896561e+001
    endloop
  endfacet
  facet normal  7.989951e-001 -6.013375e-001  0.000000e+000
    outer loop
      vertex  1.390667e+000  6.356687e+000  7.896561e+001
      vertex  2.436473e+000  7.746246e+000 -1.443439e+001
      vertex  2.436473e+000  7.746246e+000  7.896561e+001
    endloop
  endfacet
  facet normal  8.740695e-001 -4.858009e-001  0.000000e+000
    outer loop
      vertex  5.677229e-001  4.876018e+000 -1.443439e+001
      vertex  1.390667e+000  6.356687e+000 -1.443439e+001
      vertex  5.677229e-001  4.876018e+000  7.896561e+001
    endloop
  endfacet
  facet normal  8.740695e-001 -4.858009e-001  0.000000e+000
    outer loop
      vertex  5.677229e-001  4.876018e+000  7.896561e+001
      vertex  1.390667e+000  6.356687e+000 -1.443439e+001
      vertex  1.390667e+000  6.356687e+000  7.896561e+001
    endloop
  endfacet
  facet normal  9.348335e-001 -3.550865e-001  0.000000e+000
    outer loop
      vertex -2.495198e-002  3.315687e+000 -1.443439e+001
      vertex  5.677229e-001  4.876018e+000 -1.443439e+001
      vertex -2.495198e-002  3.315687e+000  7.896561e+001
    endloop
  endfacet
  facet normal  9.348335e-001 -3.550865e-001  0.000000e+000
    outer loop
      vertex -2.495198e-002  3.315687e+000  7.896561e+001
      vertex  5.677229e-001  4.876018e+000 -1.443439e+001
      vertex  5.677229e-001  4.876018e+000  7.896561e+001
    endloop
  endfacet
  facet normal  9.767761e-001 -2.142620e-001  0.000000e+000
    outer loop
      vertex -3.821603e-001  1.687248e+000 -1.443439e+001
      vertex -2.495198e-002  3.315687e+000 -1.443439e+001
      vertex -3.821603e-001  1.687248e+000  7.896561e+001
    endloop
  endfacet
  facet normal  9.767761e-001 -2.142620e-001  0.000000e+000
    outer loop
      vertex -3.821603e-001  1.687248e+000  7.896561e+001
      vertex -2.495198e-002  3.315687e+000 -1.443439e+001
      vertex -2.495198e-002  3.315687e+000  7.896561e+001
    endloop
  endfacet
  facet normal  9.975186e-001 -7.040337e-002  0.000000e+000
    outer loop
      vertex -5.012438e-001 -4.683038e-010 -1.443439e+001
      vertex -3.821603e-001  1.687248e+000 -1.443439e+001
      vertex -5.012438e-001 -4.683094e-010  7.896561e+001
    endloop
  endfacet
  facet normal  9.975186e-001 -7.040337e-002  0.000000e+000
    outer loop
      vertex -5.012438e-001 -4.683094e-010  7.896561e+001
      vertex -3.821603e-001  1.687248e+000 -1.443439e+001
      vertex -3.821603e-001  1.687248e+000  7.896561e+001
    endloop
  endfacet
  facet normal  9.975186e-001  7.040337e-002  0.000000e+000
    outer loop
      vertex -3.821603e-001 -1.687248e+000 -1.443439e+001
      vertex -5.012438e-001 -4.683038e-010 -1.443439e+001
      vertex -3.821603e-001 -1.687248e+000  7.896561e+001
    endloop
  endfacet
  facet normal  9.975186e-001  7.040337e-002  0.000000e+000
    outer loop
      vertex -3.821603e-001 -1.687248e+000  7.896561e+001
      vertex -5.012438e-001 -4.683038e-010 -1.443439e+001
      vertex -5.012438e-001 -4.683094e-010  7.896561e+001
    endloop
  endfacet
  facet normal  9.767761e-001  2.142620e-001  0.000000e+000
    outer loop
      vertex -2.495198e-002 -3.315687e+000 -1.443439e+001
      vertex -3.821603e-001 -1.687248e+000 -1.443439e+001
      vertex -2.495198e-002 -3.315687e+000  7.896561e+001
    endloop
  endfacet
  facet normal  9.767761e-001  2.142620e-001  0.000000e+000
    outer loop
      vertex -2.495198e-002 -3.315687e+000  7.896561e+001
      vertex -3.821603e-001 -1.687248e+000 -1.443439e+001
      vertex -3.821603e-001 -1.687248e+000  7.896561e+001
    endloop
  endfacet
  facet normal  9.348335e-001  3.550865e-001  0.000000e+000
    outer loop
      vertex  5.677229e-001 -4.876018e+000 -1.443439e+001
      vertex -2.495198e-002 -3.315687e+000 -1.443439e+001
      vertex  5.677229e-001 -4.876018e+000  7.896561e+001
    endloop
  endfacet
  facet normal  9.348335e-001  3.550865e-001  0.000000e+000
    outer loop
      vertex  5.677229e-001 -4.876018e+000  7.896561e+001
      vertex -2.495198e-002 -3.315687e+000 -1.443439e+001
      vertex -2.495198e-002 -3.315687e+000  7.896561e+001
    endloop
  endfacet
  facet normal  8.740695e-001  4.858009e-001  0.000000e+000
    outer loop
      vertex  1.390667e+000 -6.356687e+000 -1.443439e+001
      vertex  5.677229e-001 -4.876018e+000 -1.443439e+001
      vertex  1.390667e+000 -6.356687e+000  7.896561e+001
    endloop
  endfacet
  facet normal  8.740695e-001  4.858009e-001  0.000000e+000
    outer loop
      vertex  1.390667e+000 -6.356687e+000  7.896561e+001
      vertex  5.677229e-001 -4.876018e+000 -1.443439e+001
      vertex  5.677229e-001 -4.876018e+000  7.896561e+001
    endloop
  endfacet
  facet normal  7.989952e-001  6.013374e-001  0.000000e+000
    outer loop
      vertex  2.436473e+000 -7.746246e+000 -1.443439e+001
      vertex  1.390667e+000 -6.356687e+000 -1.443439e+001
      vertex  2.436473e+000 -7.746246e+000  7.896561e+001
    endloop
  endfacet
  facet normal  7.989952e-001  6.013374e-001  0.000000e+000
    outer loop
      vertex  2.436473e+000 -7.746246e+000  7.896561e+001
      vertex  1.390667e+000 -6.356687e+000 -1.443439e+001
      vertex  1.390667e+000 -6.356687e+000  7.896561e+001
    endloop
  endfacet
  facet normal  7.144863e-001  6.996494e-001  0.000000e+000
    outer loop
      vertex  3.696657e+000 -9.033154e+000 -1.443439e+001
      vertex  2.436473e+000 -7.746246e+000 -1.443439e+001
      vertex  3.696657e+000 -9.033154e+000  7.896561e+001
    endloop
  endfacet
  facet normal  7.144863e-001  6.996494e-001  0.000000e+000
    outer loop
      vertex  3.696657e+000 -9.033154e+000  7.896561e+001
      vertex  2.436473e+000 -7.746246e+000 -1.443439e+001
      vertex  2.436473e+000 -7.746246e+000  7.896561e+001
    endloop
  endfacet
  facet normal  6.251123e-001  7.805347e-001  0.000000e+000
    outer loop
      vertex  5.161538e+000 -1.020634e+001 -1.443439e+001
      vertex  3.696657e+000 -9.033154e+000 -1.443439e+001
      vertex  5.161538e+000 -1.020634e+001  7.896561e+001
    endloop
  endfacet
  facet normal  6.251123e-001  7.805347e-001  0.000000e+000
    outer loop
      vertex  5.161538e+000 -1.020634e+001  7.896561e+001
      vertex  3.696657e+000 -9.033154e+000 -1.443439e+001
      vertex  3.696657e+000 -9.033154e+000  7.896561e+001
    endloop
  endfacet
  facet normal  5.344064e-001  8.452278e-001  0.000000e+000
    outer loop
      vertex  6.820891e+000 -1.125549e+001 -1.443439e+001
      vertex  5.161538e+000 -1.020634e+001 -1.443439e+001
      vertex  6.820891e+000 -1.125549e+001  7.896561e+001
    endloop
  endfacet
  facet normal  5.344064e-001  8.452278e-001  0.000000e+000
    outer loop
      vertex  6.820891e+000 -1.125549e+001  7.896561e+001
      vertex  5.161538e+000 -1.020634e+001 -1.443439e+001
      vertex  5.161538e+000 -1.020634e+001  7.896561e+001
    endloop
  endfacet
  facet normal  4.450825e-001  8.954895e-001  0.000000e+000
    outer loop
      vertex  8.663497e+000 -1.217132e+001 -1.443439e+001
      vertex  6.820891e+000 -1.125549e+001 -1.443439e+001
      vertex  8.663497e+000 -1.217132e+001  7.896561e+001
    endloop
  endfacet
  facet normal  4.450825e-001  8.954895e-001  0.000000e+000
    outer loop
      vertex  8.663497e+000 -1.217132e+001  7.896561e+001
      vertex  6.820891e+000 -1.125549e+001 -1.443439e+001
      vertex  6.820891e+000 -1.125549e+001  7.896561e+001
    endloop
  endfacet
  facet normal  3.590611e-001  9.333141e-001  0.000000e+000
    outer loop
      vertex  1.067758e+001 -1.294617e+001 -1.443439e+001
      vertex  8.663497e+000 -1.217132e+001 -1.443439e+001
      vertex  1.067758e+001 -1.294617e+001  7.896561e+001
    endloop
  endfacet
  facet normal  3.590611e-001  9.333141e-001  0.000000e+000
    outer loop
      vertex  1.067758e+001 -1.294617e+001  7.896561e+001
      vertex  8.663497e+000 -1.217132e+001 -1.443439e+001
      vertex  8.663497e+000 -1.217132e+001  7.896561e+001
    endloop
  endfacet
  facet normal  2.777443e-001  9.606550e-001  0.000000e+000
    outer loop
      vertex  1.285028e+001 -1.357434e+001 -1.443439e+001
      vertex  1.067758e+001 -1.294617e+001 -1.443439e+001
      vertex  1.285028e+001 -1.357434e+001  7.896561e+001
    endloop
  endfacet
  facet normal  2.777443e-001  9.606550e-001  0.000000e+000
    outer loop
      vertex  1.285028e+001 -1.357434e+001  7.896561e+001
      vertex  1.067758e+001 -1.294617e+001 -1.443439e+001
      vertex  1.067758e+001 -1.294617e+001  7.896561e+001
    endloop
  endfacet
  facet normal  2.021147e-001  9.793618e-001  0.000000e+000
    outer loop
      vertex  1.516812e+001 -1.405268e+001 -1.443439e+001
      vertex  1.285028e+001 -1.357434e+001 -1.443439e+001
      vertex  1.516812e+001 -1.405268e+001  7.896561e+001
    endloop
  endfacet
  facet normal  2.021147e-001  9.793618e-001  0.000000e+000
    outer loop
      vertex  1.516812e+001 -1.405268e+001  7.896561e+001
      vertex  1.285028e+001 -1.357434e+001 -1.443439e+001
      vertex  1.285028e+001 -1.357434e+001  7.896561e+001
    endloop
  endfacet
  facet normal  1.326481e-001  9.911631e-001  0.000000e+000
    outer loop
      vertex  1.761695e+001 -1.438041e+001 -1.443439e+001
      vertex  1.516812e+001 -1.405268e+001 -1.443439e+001
      vertex  1.761695e+001 -1.438041e+001  7.896561e+001
    endloop
  endfacet
  facet normal  1.326481e-001  9.911631e-001  0.000000e+000
    outer loop
      vertex  1.761695e+001 -1.438041e+001  7.896561e+001
      vertex  1.516812e+001 -1.405268e+001 -1.443439e+001
      vertex  1.516812e+001 -1.405268e+001  7.896561e+001
    endloop
  endfacet
  facet normal  0.000000e+000  0.000000e+000  1.000000e+000
    outer loop
      vertex  1.516812e+001  1.405268e+001  7.896561e+001
      vertex  5.593306e+000  1.343712e+001  7.896561e+001
      vertex  1.285028e+001  1.357434e+001  7.896561e+001
    endloop
  endfacet
  facet normal  0.000000e+000  0.000000e+000  1.000000e+000
    outer loop
      vertex  1.516812e+001  1.405268e+001  7.896561e+001
      vertex  1.761695e+001  1.438041e+001  7.896561e+001
      vertex  5.593306e+000  1.343712e+001  7.896561e+001
    endloop
  endfacet
  facet normal  0.000000e+000  -0.000000e+000  9.999999e-001
    outer loop
      vertex  1.761695e+001  1.438041e+001  7.896561e+001
      vertex  1.818052e+001  1.441975e+001  7.896561e+001
      vertex  1.833514e+001  1.444596e+001  7.896561e+001
    endloop
  endfacet
  facet normal  0.000000e+000  0.000000e+000  1.000000e+000
    outer loop
      vertex  1.761695e+001  1.438041e+001  7.896561e+001
      vertex  1.833514e+001  1.444596e+001  7.896561e+001
      vertex  7.656093e+000  1.446238e+001  7.896561e+001
    endloop
  endfacet
  facet normal  0.000000e+000  0.000000e+000  1.000000e+000
    outer loop
      vertex  1.761695e+001  1.438041e+001  7.896561e+001
      vertex  7.656093e+000  1.446238e+001  7.896561e+001
      vertex  5.593306e+000  1.343712e+001  7.896561e+001
    endloop
  endfacet
  facet normal  0.000000e+000  0.000000e+000  1.000000e+000
    outer loop
      vertex  1.892286e+001  1.527353e+001  7.896561e+001
      vertex  1.880446e+001  1.696940e+001  7.896561e+001
      vertex  1.736383e+001  1.686882e+001  7.896561e+001
    endloop
  endfacet
  facet normal  0.000000e+000  0.000000e+000  1.000000e+000
    outer loop
      vertex  1.892286e+001  1.527353e+001  7.896561e+001
      vertex  1.736383e+001  1.686882e+001  7.896561e+001
      vertex  1.474915e+001  1.651890e+001  7.896561e+001
    endloop
  endfacet
  facet normal  0.000000e+000  0.000000e+000  1.000000e+000
    outer loop
      vertex  1.892286e+001  1.527353e+001  7.896561e+001
      vertex  1.474915e+001  1.651890e+001  7.896561e+001
      vertex  1.224954e+001  1.600304e+001  7.896561e+001
    endloop
  endfacet
  facet normal  0.000000e+000  0.000000e+000  1.000000e+000
    outer loop
      vertex  1.892286e+001  1.527353e+001  7.896561e+001
      vertex  1.224954e+001  1.600304e+001  7.896561e+001
      vertex  9.880110e+000  1.531799e+001  7.896561e+001
    endloop
  endfacet
  facet normal  0.000000e+000  -0.000000e+000  1.000000e+000
    outer loop
      vertex  7.656093e+000  1.446238e+001  7.896561e+001
      vertex  1.833514e+001  1.444596e+001  7.896561e+001
      vertex  1.848168e+001  1.450182e+001  7.896561e+001
    endloop
  endfacet
  facet normal  0.000000e+000  -0.000000e+000  1.000000e+000
    outer loop
      vertex  7.656093e+000  1.446238e+001  7.896561e+001
      vertex  1.848168e+001  1.450182e+001  7.896561e+001
      vertex  1.861450e+001  1.458520e+001  7.896561e+001
    endloop
  endfacet
  facet normal  0.000000e+000  -0.000000e+000  1.000000e+000
    outer loop
      vertex  7.656093e+000  1.446238e+001  7.896561e+001
      vertex  1.861450e+001  1.458520e+001  7.896561e+001
      vertex  1.872851e+001  1.469289e+001  7.896561e+001
    endloop
  endfacet
  facet normal  0.000000e+000  -0.000000e+000  1.000000e+000
    outer loop
      vertex  7.656093e+000  1.446238e+001  7.896561e+001
      vertex  1.872851e+001  1.469289e+001  7.896561e+001
      vertex  1.881931e+001  1.482076e+001  7.896561e+001
    endloop
  endfacet
  facet normal  0.000000e+000  -0.000000e+000  1.000000e+000
    outer loop
      vertex  7.656093e+000  1.446238e+001  7.896561e+001
      vertex  1.881931e+001  1.482076e+001  7.896561e+001
      vertex  1.888343e+001  1.496388e+001  7.896561e+001
    endloop
  endfacet
  facet normal  0.000000e+000  -0.000000e+000  1.000000e+000
    outer loop
      vertex  7.656093e+000  1.446238e+001  7.896561e+001
      vertex  1.888343e+001  1.496388e+001  7.896561e+001
      vertex  1.891839e+001  1.511676e+001  7.896561e+001
    endloop
  endfacet
  facet normal  0.000000e+000  -0.000000e+000  9.999999e-001
    outer loop
      vertex  7.656093e+000  1.446238e+001  7.896561e+001
      vertex  1.891839e+001  1.511676e+001  7.896561e+001
      vertex  1.892286e+001  1.527353e+001  7.896561e+001
    endloop
  endfacet
  facet normal  0.000000e+000  0.000000e+000  9.999999e-001
    outer loop
      vertex  7.656093e+000  1.446238e+001  7.896561e+001
      vertex  1.892286e+001  1.527353e+001  7.896561e+001
      vertex  9.880110e+000  1.531799e+001  7.896561e+001
    endloop
  endfacet
  facet normal  0.000000e+000  -0.000000e+000  1.000000e+000
    outer loop
      vertex  7.656093e+000 -1.446238e+001  7.896561e+001
      vertex  9.880110e+000 -1.531799e+001  7.896561e+001
      vertex  1.848168e+001 -1.450182e+001  7.896561e+001
    endloop
  endfacet
  facet normal  0.000000e+000  0.000000e+000  1.000000e+000
    outer loop
      vertex  7.656093e+000 -1.446238e+001  7.896561e+001
      vertex  1.848168e+001 -1.450182e+001  7.896561e+001
      vertex  1.833514e+001 -1.444596e+001  7.896561e+001
    endloop
  endfacet
  facet normal  0.000000e+000  0.000000e+000  1.000000e+000
    outer loop
      vertex  7.656093e+000 -1.446238e+001  7.896561e+001
      vertex  1.833514e+001 -1.444596e+001  7.896561e+001
      vertex  1.818052e+001 -1.441975e+001  7.896561e+001
    endloop
  endfacet
  facet normal  0.000000e+000  0.000000e+000  1.000000e+000
    outer loop
      vertex  7.656093e+000 -1.446238e+001  7.896561e+001
      vertex  1.818052e+001 -1.441975e+001  7.896561e+001
      vertex  1.761695e+001 -1.438041e+001  7.896561e+001
    endloop
  endfacet
  facet normal  0.000000e+000  0.000000e+000  1.000000e+000
    outer loop
      vertex  7.656093e+000 -1.446238e+001  7.896561e+001
      vertex  1.761695e+001 -1.438041e+001  7.896561e+001
      vertex  1.516812e+001 -1.405268e+001  7.896561e+001
    endloop
  endfacet
  facet normal  0.000000e+000  0.000000e+000  1.000000e+000
    outer loop
      vertex  7.656093e+000 -1.446238e+001  7.896561e+001
      vertex  1.516812e+001 -1.405268e+001  7.896561e+001
      vertex  1.285028e+001 -1.357434e+001  7.896561e+001
    endloop
  endfacet
  facet normal  0.000000e+000  0.000000e+000  9.999999e-001
    outer loop
      vertex  7.656093e+000 -1.446238e+001  7.896561e+001
      vertex  1.285028e+001 -1.357434e+001  7.896561e+001
      vertex  5.593306e+000 -1.343712e+001  7.896561e+001
    endloop
  endfacet
  facet normal  0.000000e+000  -0.000000e+000  1.000000e+000
    outer loop
      vertex  9.880110e+000 -1.531799e+001  7.896561e+001
      vertex  1.880446e+001 -1.696940e+001  7.896561e+001
      vertex  1.892286e+001 -1.527353e+001  7.896561e+001
    endloop
  endfacet
  facet normal  0.000000e+000  0.000000e+000  9.999999e-001
    outer loop
      vertex  9.880110e+000 -1.531799e+001  7.896561e+001
      vertex  1.892286e+001 -1.527353e+001  7.896561e+001
      vertex  1.891839e+001 -1.511676e+001  7.896561e+001
    endloop
  endfacet
  facet normal  0.000000e+000  0.000000e+000  1.000000e+000
    outer loop
      vertex  9.880110e+000 -1.531799e+001  7.896561e+001
      vertex  1.891839e+001 -1.511676e+001  7.896561e+001
      vertex  1.888343e+001 -1.496388e+001  7.896561e+001
    endloop
  endfacet
  facet normal  0.000000e+000  0.000000e+000  1.000000e+000
    outer loop
      vertex  9.880110e+000 -1.531799e+001  7.896561e+001
      vertex  1.888343e+001 -1.496388e+001  7.896561e+001
      vertex  1.881931e+001 -1.482076e+001  7.896561e+001
    endloop
  endfacet
  facet normal  0.000000e+000  0.000000e+000  1.000000e+000
    outer loop
      vertex  9.880110e+000 -1.531799e+001  7.896561e+001
      vertex  1.881931e+001 -1.482076e+001  7.896561e+001
      vertex  1.872851e+001 -1.469289e+001  7.896561e+001
    endloop
  endfacet
  facet normal  0.000000e+000  0.000000e+000  1.000000e+000
    outer loop
      vertex  9.880110e+000 -1.531799e+001  7.896561e+001
      vertex  1.872851e+001 -1.469289e+001  7.896561e+001
      vertex  1.861450e+001 -1.458520e+001  7.896561e+001
    endloop
  endfacet
  facet normal  0.000000e+000  0.000000e+000  1.000000e+000
    outer loop
      vertex  9.880110e+000 -1.531799e+001  7.896561e+001
      vertex  1.861450e+001 -1.458520e+001  7.896561e+001
      vertex  1.848168e+001 -1.450182e+001  7.896561e+001
    endloop
  endfacet
  facet normal  0.000000e+000  0.000000e+000  1.000000e+000
    outer loop
      vertex  1.880446e+001 -1.696940e+001  7.896561e+001
      vertex  9.880110e+000 -1.531799e+001  7.896561e+001
      vertex  1.224954e+001 -1.600304e+001  7.896561e+001
    endloop
  endfacet
  facet normal  0.000000e+000  0.000000e+000  9.999999e-001
    outer loop
      vertex  1.880446e+001 -1.696940e+001  7.896561e+001
      vertex  1.224954e+001 -1.600304e+001  7.896561e+001
      vertex  1.474915e+001 -1.651890e+001  7.896561e+001
    endloop
  endfacet
  facet normal  0.000000e+000  0.000000e+000  1.000000e+000
    outer loop
      vertex  1.880446e+001 -1.696940e+001  7.896561e+001
      vertex  1.474915e+001 -1.651890e+001  7.896561e+001
      vertex  1.736383e+001 -1.686882e+001  7.896561e+001
    endloop
  endfacet
  facet normal  -0.000000e+000  0.000000e+000  1.000000e+000
    outer loop
      vertex  1.285028e+001  1.357434e+001  7.896561e+001
      vertex  5.593306e+000  1.343712e+001  7.896561e+001
      vertex  1.067758e+001  1.294617e+001  7.896561e+001
    endloop
  endfacet
  facet normal  0.000000e+000  0.000000e+000  1.000000e+000
    outer loop
      vertex  1.067758e+001  1.294617e+001  7.896561e+001
      vertex  5.593306e+000  1.343712e+001  7.896561e+001
      vertex  3.707628e+000  1.224487e+001  7.896561e+001
    endloop
  endfacet
  facet normal  -0.000000e+000  0.000000e+000  1.000000e+000
    outer loop
      vertex  1.067758e+001  1.294617e+001  7.896561e+001
      vertex  3.707628e+000  1.224487e+001  7.896561e+001
      vertex  8.663497e+000  1.217132e+001  7.896561e+001
    endloop
  endfacet
  facet normal  0.000000e+000  0.000000e+000  1.000000e+000
    outer loop
      vertex  8.663497e+000  1.217132e+001  7.896561e+001
      vertex  3.707628e+000  1.224487e+001  7.896561e+001
      vertex  6.820891e+000  1.125549e+001  7.896561e+001
    endloop
  endfacet
  facet normal  0.000000e+000  0.000000e+000  1.000000e+000
    outer loop
      vertex  6.820891e+000  1.125549e+001  7.896561e+001
      vertex  3.707628e+000  1.224487e+001  7.896561e+001
      vertex  2.016054e+000  1.089013e+001  7.896561e+001
    endloop
  endfacet
  facet normal  -0.000000e+000  0.000000e+000  1.000000e+000
    outer loop
      vertex  6.820891e+000  1.125549e+001  7.896561e+001
      vertex  2.016054e+000  1.089013e+001  7.896561e+001
      vertex  5.161538e+000  1.020634e+001  7.896561e+001
    endloop
  endfacet
  facet normal  0.000000e+000  0.000000e+000  1.000000e+000
    outer loop
      vertex  5.161538e+000  1.020634e+001  7.896561e+001
      vertex  2.016054e+000  1.089013e+001  7.896561e+001
      vertex  5.366386e-001  9.379341e+000  7.896561e+001
    endloop
  endfacet
  facet normal  -0.000000e+000  0.000000e+000  1.000000e+000
    outer loop
      vertex  5.161538e+000  1.020634e+001  7.896561e+001
      vertex  5.366386e-001  9.379341e+000  7.896561e+001
      vertex  3.696657e+000  9.033154e+000  7.896561e+001
    endloop
  endfacet
  facet normal  0.000000e+000  0.000000e+000  1.000000e+000
    outer loop
      vertex  3.696657e+000  9.033154e+000  7.896561e+001
      vertex  5.366386e-001  9.379341e+000  7.896561e+001
      vertex  2.436473e+000  7.746246e+000  7.896561e+001
    endloop
  endfacet
  facet normal  0.000000e+000  0.000000e+000  1.000000e+000
    outer loop
      vertex  2.436473e+000  7.746246e+000  7.896561e+001
      vertex  5.366386e-001  9.379341e+000  7.896561e+001
      vertex -7.106369e-001  7.722091e+000  7.896561e+001
    endloop
  endfacet
  facet normal  -0.000000e+000  0.000000e+000  1.000000e+000
    outer loop
      vertex  2.436473e+000  7.746246e+000  7.896561e+001
      vertex -7.106369e-001  7.722091e+000  7.896561e+001
      vertex  1.390667e+000  6.356687e+000  7.896561e+001
    endloop
  endfacet
  facet normal  0.000000e+000  0.000000e+000  1.000000e+000
    outer loop
      vertex  1.390667e+000  6.356687e+000  7.896561e+001
      vertex -7.106369e-001  7.722091e+000  7.896561e+001
      vertex -1.705213e+000  5.932615e+000  7.896561e+001
    endloop
  endfacet
  facet normal  -0.000000e+000  0.000000e+000  1.000000e+000
    outer loop
      vertex  1.390667e+000  6.356687e+000  7.896561e+001
      vertex -1.705213e+000  5.932615e+000  7.896561e+001
      vertex  5.677229e-001  4.876018e+000  7.896561e+001
    endloop
  endfacet
  facet normal  0.000000e+000  0.000000e+000  9.999999e-001
    outer loop
      vertex  5.677229e-001  4.876018e+000  7.896561e+001
      vertex -1.705213e+000  5.932615e+000  7.896561e+001
      vertex -2.427432e+000  4.031235e+000  7.896561e+001
    endloop
  endfacet
  facet normal  -0.000000e+000  0.000000e+000  1.000000e+000
    outer loop
      vertex  5.677229e-001  4.876018e+000  7.896561e+001
      vertex -2.427432e+000  4.031235e+000  7.896561e+001
      vertex -2.495198e-002  3.315687e+000  7.896561e+001
    endloop
  endfacet
  facet normal  0.000000e+000  0.000000e+000  1.000000e+000
    outer loop
      vertex -2.495198e-002  3.315687e+000  7.896561e+001
      vertex -2.427432e+000  4.031235e+000  7.896561e+001
      vertex -3.821603e-001  1.687248e+000  7.896561e+001
    endloop
  endfacet
  facet normal  0.000000e+000  0.000000e+000  1.000000e+000
    outer loop
      vertex -3.821603e-001  1.687248e+000  7.896561e+001
      vertex -2.427432e+000  4.031235e+000  7.896561e+001
      vertex -2.863132e+000  2.044969e+000  7.896561e+001
    endloop
  endfacet
  facet normal  0.000000e+000  0.000000e+000  1.000000e+000
    outer loop
      vertex -3.821603e-001  1.687248e+000  7.896561e+001
      vertex -2.863132e+000  2.044969e+000  7.896561e+001
      vertex -5.012438e-001 -4.683094e-010  7.896561e+001
    endloop
  endfacet
  facet normal  0.000000e+000  0.000000e+000  1.000000e+000
    outer loop
      vertex -5.012438e-001 -4.683094e-010  7.896561e+001
      vertex -2.863132e+000  2.044969e+000  7.896561e+001
      vertex -3.007463e+000 -5.878333e-010  7.896561e+001
    endloop
  endfacet
  facet normal  -0.000000e+000  0.000000e+000  1.000000e+000
    outer loop
      vertex -5.012438e-001 -4.683094e-010  7.896561e+001
      vertex -3.007463e+000 -5.878333e-010  7.896561e+001
      vertex -3.821603e-001 -1.687248e+000  7.896561e+001
    endloop
  endfacet
  facet normal  0.000000e+000  0.000000e+000  1.000000e+000
    outer loop
      vertex -3.821603e-001 -1.687248e+000  7.896561e+001
      vertex -3.007463e+000 -5.878333e-010  7.896561e+001
      vertex -2.863132e+000 -2.044969e+000  7.896561e+001
    endloop
  endfacet
  facet normal  -0.000000e+000  0.000000e+000  1.000000e+000
    outer loop
      vertex -3.821603e-001 -1.687248e+000  7.896561e+001
      vertex -2.863132e+000 -2.044969e+000  7.896561e+001
      vertex -2.495198e-002 -3.315687e+000  7.896561e+001
    endloop
  endfacet
  facet normal  0.000000e+000  0.000000e+000  1.000000e+000
    outer loop
      vertex -2.495198e-002 -3.315687e+000  7.896561e+001
      vertex -2.863132e+000 -2.044969e+000  7.896561e+001
      vertex -2.427432e+000 -4.031235e+000  7.896561e+001
    endloop
  endfacet
  facet normal  -0.000000e+000  0.000000e+000  1.000000e+000
    outer loop
      vertex -2.495198e-002 -3.315687e+000  7.896561e+001
      vertex -2.427432e+000 -4.031235e+000  7.896561e+001
      vertex  5.677229e-001 -4.876018e+000  7.896561e+001
    endloop
  endfacet
  facet normal  0.000000e+000  0.000000e+000  9.999999e-001
    outer loop
      vertex  5.677229e-001 -4.876018e+000  7.896561e+001
      vertex -2.427432e+000 -4.031235e+000  7.896561e+001
      vertex -1.705213e+000 -5.932615e+000  7.896561e+001
    endloop
  endfacet
  facet normal  -0.000000e+000  0.000000e+000  1.000000e+000
    outer loop
      vertex  5.677229e-001 -4.876018e+000  7.896561e+001
      vertex -1.705213e+000 -5.932615e+000  7.896561e+001
      vertex  1.390667e+000 -6.356687e+000  7.896561e+001
    endloop
  endfacet
  facet normal  0.000000e+000  0.000000e+000  1.000000e+000
    outer loop
      vertex  1.390667e+000 -6.356687e+000  7.896561e+001
      vertex -1.705213e+000 -5.932615e+000  7.896561e+001
      vertex  2.436473e+000 -7.746246e+000  7.896561e+001
    endloop
  endfacet
  facet normal  0.000000e+000  0.000000e+000  1.000000e+000
    outer loop
      vertex  2.436473e+000 -7.746246e+000  7.896561e+001
      vertex -1.705213e+000 -5.932615e+000  7.896561e+001
      vertex -7.106369e-001 -7.722091e+000  7.896561e+001
    endloop
  endfacet
  facet normal  0.000000e+000  0.000000e+000  1.000000e+000
    outer loop
      vertex  2.436473e+000 -7.746246e+000  7.896561e+001
      vertex -7.106369e-001 -7.722091e+000  7.896561e+001
      vertex  3.696657e+000 -9.033154e+000  7.896561e+001
    endloop
  endfacet
  facet normal  0.000000e+000  0.000000e+000  1.000000e+000
    outer loop
      vertex  3.696657e+000 -9.033154e+000  7.896561e+001
      vertex -7.106369e-001 -7.722091e+000  7.896561e+001
      vertex  5.366386e-001 -9.379341e+000  7.896561e+001
    endloop
  endfacet
  facet normal  -0.000000e+000  0.000000e+000  1.000000e+000
    outer loop
      vertex  3.696657e+000 -9.033154e+000  7.896561e+001
      vertex  5.366386e-001 -9.379341e+000  7.896561e+001
      vertex  5.161538e+000 -1.020634e+001  7.896561e+001
    endloop
  endfacet
  facet normal  0.000000e+000  0.000000e+000  1.000000e+000
    outer loop
      vertex  5.161538e+000 -1.020634e+001  7.896561e+001
      vertex  5.366386e-001 -9.379341e+000  7.896561e+001
      vertex  2.016054e+000 -1.089013e+001  7.896561e+001
    endloop
  endfacet
  facet normal  -0.000000e+000  0.000000e+000  1.000000e+000
    outer loop
      vertex  5.161538e+000 -1.020634e+001  7.896561e+001
      vertex  2.016054e+000 -1.089013e+001  7.896561e+001
      vertex  6.820891e+000 -1.125549e+001  7.896561e+001
    endloop
  endfacet
  facet normal  0.000000e+000  0.000000e+000  1.000000e+000
    outer loop
      vertex  6.820891e+000 -1.125549e+001  7.896561e+001
      vertex  2.016054e+000 -1.089013e+001  7.896561e+001
      vertex  8.663497e+000 -1.217132e+001  7.896561e+001
    endloop
  endfacet
  facet normal  0.000000e+000  0.000000e+000  1.000000e+000
    outer loop
      vertex  8.663497e+000 -1.217132e+001  7.896561e+001
      vertex  2.016054e+000 -1.089013e+001  7.896561e+001
      vertex  3.707628e+000 -1.224487e+001  7.896561e+001
    endloop
  endfacet
  facet normal  -0.000000e+000  0.000000e+000  1.000000e+000
    outer loop
      vertex  8.663497e+000 -1.217132e+001  7.896561e+001
      vertex  3.707628e+000 -1.224487e+001  7.896561e+001
      vertex  1.067758e+001 -1.294617e+001  7.896561e+001
    endloop
  endfacet
  facet normal  0.000000e+000  0.000000e+000  1.000000e+000
    outer loop
      vertex  1.067758e+001 -1.294617e+001  7.896561e+001
      vertex  3.707628e+000 -1.224487e+001  7.896561e+001
      vertex  5.593306e+000 -1.343712e+001  7.896561e+001
    endloop
  endfacet
  facet normal  -0.000000e+000  0.000000e+000  1.000000e+000
    outer loop
      vertex  1.067758e+001 -1.294617e+001  7.896561e+001
      vertex  5.593306e+000 -1.343712e+001  7.896561e+001
      vertex  1.285028e+001 -1.357434e+001  7.896561e+001
    endloop
  endfacet
  facet normal -6.964448e-002 -9.975718e-001  -0.000000e+000
    outer loop
      vertex  1.880446e+001 -1.696940e+001 -1.443439e+001
      vertex  1.880446e+001 -1.696940e+001  7.896561e+001
      vertex  1.736383e+001 -1.686882e+001 -1.443439e+001
    endloop
  endfacet
  facet normal -6.964448e-002 -9.975718e-001  0.000000e+000
    outer loop
      vertex  1.736383e+001 -1.686882e+001 -1.443439e+001
      vertex  1.880446e+001 -1.696940e+001  7.896561e+001
      vertex  1.736383e+001 -1.686882e+001  7.896561e+001
    endloop
  endfacet
  facet normal -1.326486e-001  9.911631e-001  0.000000e+000
    outer loop
      vertex  1.474915e+001  1.651890e+001 -1.443439e+001
      vertex  1.474915e+001  1.651890e+001  7.896561e+001
      vertex  1.736383e+001  1.686882e+001 -1.443439e+001
    endloop
  endfacet
  facet normal -1.326486e-001  9.911631e-001  0.000000e+000
    outer loop
      vertex  1.736383e+001  1.686882e+001 -1.443439e+001
      vertex  1.474915e+001  1.651890e+001  7.896561e+001
      vertex  1.736383e+001  1.686882e+001  7.896561e+001
    endloop
  endfacet
  facet normal -2.021148e-001  9.793618e-001  0.000000e+000
    outer loop
      vertex  1.224954e+001  1.600304e+001 -1.443439e+001
      vertex  1.224954e+001  1.600304e+001  7.896561e+001
      vertex  1.474915e+001  1.651890e+001 -1.443439e+001
    endloop
  endfacet
  facet normal -2.021148e-001  9.793618e-001  0.000000e+000
    outer loop
      vertex  1.474915e+001  1.651890e+001 -1.443439e+001
      vertex  1.224954e+001  1.600304e+001  7.896561e+001
      vertex  1.474915e+001  1.651890e+001  7.896561e+001
    endloop
  endfacet
  facet normal -2.777438e-001  9.606552e-001  0.000000e+000
    outer loop
      vertex  9.880110e+000  1.531799e+001 -1.443439e+001
      vertex  9.880110e+000  1.531799e+001  7.896561e+001
      vertex  1.224954e+001  1.600304e+001 -1.443439e+001
    endloop
  endfacet
  facet normal -2.777438e-001  9.606552e-001  0.000000e+000
    outer loop
      vertex  1.224954e+001  1.600304e+001 -1.443439e+001
      vertex  9.880110e+000  1.531799e+001  7.896561e+001
      vertex  1.224954e+001  1.600304e+001  7.896561e+001
    endloop
  endfacet
  facet normal -3.590612e-001  9.333140e-001  0.000000e+000
    outer loop
      vertex  7.656093e+000  1.446238e+001 -1.443439e+001
      vertex  7.656093e+000  1.446238e+001  7.896561e+001
      vertex  9.880110e+000  1.531799e+001 -1.443439e+001
    endloop
  endfacet
  facet normal -3.590612e-001  9.333140e-001  0.000000e+000
    outer loop
      vertex  9.880110e+000  1.531799e+001 -1.443439e+001
      vertex  7.656093e+000  1.446238e+001  7.896561e+001
      vertex  9.880110e+000  1.531799e+001  7.896561e+001
    endloop
  endfacet
  facet normal -4.450825e-001  8.954896e-001  0.000000e+000
    outer loop
      vertex  5.593306e+000  1.343712e+001 -1.443439e+001
      vertex  5.593306e+000  1.343712e+001  7.896561e+001
      vertex  7.656093e+000  1.446238e+001 -1.443439e+001
    endloop
  endfacet
  facet normal -4.450825e-001  8.954896e-001  0.000000e+000
    outer loop
      vertex  7.656093e+000  1.446238e+001 -1.443439e+001
      vertex  5.593306e+000  1.343712e+001  7.896561e+001
      vertex  7.656093e+000  1.446238e+001  7.896561e+001
    endloop
  endfacet
  facet normal -5.344066e-001  8.452275e-001  0.000000e+000
    outer loop
      vertex  3.707628e+000  1.224487e+001 -1.443439e+001
      vertex  3.707628e+000  1.224487e+001  7.896561e+001
      vertex  5.593306e+000  1.343712e+001 -1.443439e+001
    endloop
  endfacet
  facet normal -5.344066e-001  8.452275e-001  0.000000e+000
    outer loop
      vertex  5.593306e+000  1.343712e+001 -1.443439e+001
      vertex  3.707628e+000  1.224487e+001  7.896561e+001
      vertex  5.593306e+000  1.343712e+001  7.896561e+001
    endloop
  endfacet
  facet normal -6.251122e-001  7.805348e-001  0.000000e+000
    outer loop
      vertex  2.016054e+000  1.089013e+001 -1.443439e+001
      vertex  2.016054e+000  1.089013e+001  7.896561e+001
      vertex  3.707628e+000  1.224487e+001 -1.443439e+001
    endloop
  endfacet
  facet normal -6.251122e-001  7.805348e-001  0.000000e+000
    outer loop
      vertex  3.707628e+000  1.224487e+001 -1.443439e+001
      vertex  2.016054e+000  1.089013e+001  7.896561e+001
      vertex  3.707628e+000  1.224487e+001  7.896561e+001
    endloop
  endfacet
  facet normal -7.144864e-001  6.996493e-001  0.000000e+000
    outer loop
      vertex  5.366386e-001  9.379341e+000 -1.443439e+001
      vertex  5.366386e-001  9.379341e+000  7.896561e+001
      vertex  2.016054e+000  1.089013e+001 -1.443439e+001
    endloop
  endfacet
  facet normal -7.144864e-001  6.996493e-001  0.000000e+000
    outer loop
      vertex  2.016054e+000  1.089013e+001 -1.443439e+001
      vertex  5.366386e-001  9.379341e+000  7.896561e+001
      vertex  2.016054e+000  1.089013e+001  7.896561e+001
    endloop
  endfacet
  facet normal -7.989951e-001  6.013377e-001  0.000000e+000
    outer loop
      vertex -7.106369e-001  7.722091e+000 -1.443439e+001
      vertex -7.106369e-001  7.722091e+000  7.896561e+001
      vertex  5.366386e-001  9.379341e+000 -1.443439e+001
    endloop
  endfacet
  facet normal -7.989951e-001  6.013377e-001  0.000000e+000
    outer loop
      vertex  5.366386e-001  9.379341e+000 -1.443439e+001
      vertex -7.106369e-001  7.722091e+000  7.896561e+001
      vertex  5.366386e-001  9.379341e+000  7.896561e+001
    endloop
  endfacet
  facet normal -8.740696e-001  4.858008e-001  0.000000e+000
    outer loop
      vertex -1.705213e+000  5.932615e+000 -1.443439e+001
      vertex -1.705213e+000  5.932615e+000  7.896561e+001
      vertex -7.106369e-001  7.722091e+000 -1.443439e+001
    endloop
  endfacet
  facet normal -8.740696e-001  4.858008e-001  0.000000e+000
    outer loop
      vertex -7.106369e-001  7.722091e+000 -1.443439e+001
      vertex -1.705213e+000  5.932615e+000  7.896561e+001
      vertex -7.106369e-001  7.722091e+000  7.896561e+001
    endloop
  endfacet
  facet normal -9.348334e-001  3.550865e-001  0.000000e+000
    outer loop
      vertex -2.427432e+000  4.031235e+000 -1.443439e+001
      vertex -2.427432e+000  4.031235e+000  7.896561e+001
      vertex -1.705213e+000  5.932615e+000 -1.443439e+001
    endloop
  endfacet
  facet normal -9.348334e-001  3.550865e-001  0.000000e+000
    outer loop
      vertex -1.705213e+000  5.932615e+000 -1.443439e+001
      vertex -2.427432e+000  4.031235e+000  7.896561e+001
      vertex -1.705213e+000  5.932615e+000  7.896561e+001
    endloop
  endfacet
  facet normal -9.767762e-001  2.142620e-001  0.000000e+000
    outer loop
      vertex -2.863132e+000  2.044969e+000 -1.443439e+001
      vertex -2.863132e+000  2.044969e+000  7.896561e+001
      vertex -2.427432e+000  4.031235e+000 -1.443439e+001
    endloop
  endfacet
  facet normal -9.767762e-001  2.142620e-001  0.000000e+000
    outer loop
      vertex -2.427432e+000  4.031235e+000 -1.443439e+001
      vertex -2.863132e+000  2.044969e+000  7.896561e+001
      vertex -2.427432e+000  4.031235e+000  7.896561e+001
    endloop
  endfacet
  facet normal -9.975187e-001  7.040343e-002  4.811993e-018
    outer loop
      vertex -3.007463e+000 -5.878269e-010 -1.443439e+001
      vertex -3.007463e+000 -5.878333e-010  7.896561e+001
      vertex -2.863132e+000  2.044969e+000 -1.443439e+001
    endloop
  endfacet
  facet normal -9.975187e-001  7.040343e-002  0.000000e+000
    outer loop
      vertex -2.863132e+000  2.044969e+000 -1.443439e+001
      vertex -3.007463e+000 -5.878333e-010  7.896561e+001
      vertex -2.863132e+000  2.044969e+000  7.896561e+001
    endloop
  endfacet
  facet normal -9.975187e-001 -7.040343e-002  -0.000000e+000
    outer loop
      vertex -2.863132e+000 -2.044969e+000 -1.443439e+001
      vertex -2.863132e+000 -2.044969e+000  7.896561e+001
      vertex -3.007463e+000 -5.878269e-010 -1.443439e+001
    endloop
  endfacet
  facet normal -9.975187e-001 -7.040343e-002 -4.811993e-018
    outer loop
      vertex -3.007463e+000 -5.878269e-010 -1.443439e+001
      vertex -2.863132e+000 -2.044969e+000  7.896561e+001
      vertex -3.007463e+000 -5.878333e-010  7.896561e+001
    endloop
  endfacet
  facet normal -9.767762e-001 -2.142620e-001  -0.000000e+000
    outer loop
      vertex -2.427432e+000 -4.031235e+000 -1.443439e+001
      vertex -2.427432e+000 -4.031235e+000  7.896561e+001
      vertex -2.863132e+000 -2.044969e+000 -1.443439e+001
    endloop
  endfacet
  facet normal -9.767762e-001 -2.142620e-001  0.000000e+000
    outer loop
      vertex -2.863132e+000 -2.044969e+000 -1.443439e+001
      vertex -2.427432e+000 -4.031235e+000  7.896561e+001
      vertex -2.863132e+000 -2.044969e+000  7.896561e+001
    endloop
  endfacet
  facet normal -9.348334e-001 -3.550865e-001  -0.000000e+000
    outer loop
      vertex -1.705213e+000 -5.932615e+000 -1.443439e+001
      vertex -1.705213e+000 -5.932615e+000  7.896561e+001
      vertex -2.427432e+000 -4.031235e+000 -1.443439e+001
    endloop
  endfacet
  facet normal -9.348334e-001 -3.550865e-001  0.000000e+000
    outer loop
      vertex -2.427432e+000 -4.031235e+000 -1.443439e+001
      vertex -1.705213e+000 -5.932615e+000  7.896561e+001
      vertex -2.427432e+000 -4.031235e+000  7.896561e+001
    endloop
  endfacet
  facet normal -8.740696e-001 -4.858008e-001  -0.000000e+000
    outer loop
      vertex -7.106369e-001 -7.722091e+000 -1.443439e+001
      vertex -7.106369e-001 -7.722091e+000  7.896561e+001
      vertex -1.705213e+000 -5.932615e+000 -1.443439e+001
    endloop
  endfacet
  facet normal -8.740696e-001 -4.858008e-001  0.000000e+000
    outer loop
      vertex -1.705213e+000 -5.932615e+000 -1.443439e+001
      vertex -7.106369e-001 -7.722091e+000  7.896561e+001
      vertex -1.705213e+000 -5.932615e+000  7.896561e+001
    endloop
  endfacet
  facet normal -7.989951e-001 -6.013377e-001  -0.000000e+000
    outer loop
      vertex  5.366386e-001 -9.379341e+000 -1.443439e+001
      vertex  5.366386e-001 -9.379341e+000  7.896561e+001
      vertex -7.106369e-001 -7.722091e+000 -1.443439e+001
    endloop
  endfacet
  facet normal -7.989951e-001 -6.013377e-001  0.000000e+000
    outer loop
      vertex -7.106369e-001 -7.722091e+000 -1.443439e+001
      vertex  5.366386e-001 -9.379341e+000  7.896561e+001
      vertex -7.106369e-001 -7.722091e+000  7.896561e+001
    endloop
  endfacet
  facet normal -7.144864e-001 -6.996493e-001  -0.000000e+000
    outer loop
      vertex  2.016054e+000 -1.089013e+001 -1.443439e+001
      vertex  2.016054e+000 -1.089013e+001  7.896561e+001
      vertex  5.366386e-001 -9.379341e+000 -1.443439e+001
    endloop
  endfacet
  facet normal -7.144864e-001 -6.996493e-001  0.000000e+000
    outer loop
      vertex  5.366386e-001 -9.379341e+000 -1.443439e+001
      vertex  2.016054e+000 -1.089013e+001  7.896561e+001
      vertex  5.366386e-001 -9.379341e+000  7.896561e+001
    endloop
  endfacet
  facet normal -6.251122e-001 -7.805348e-001  -0.000000e+000
    outer loop
      vertex  3.707628e+000 -1.224487e+001 -1.443439e+001
      vertex  3.707628e+000 -1.224487e+001  7.896561e+001
      vertex  2.016054e+000 -1.089013e+001 -1.443439e+001
    endloop
  endfacet
  facet normal -6.251122e-001 -7.805348e-001  0.000000e+000
    outer loop
      vertex  2.016054e+000 -1.089013e+001 -1.443439e+001
      vertex  3.707628e+000 -1.224487e+001  7.896561e+001
      vertex  2.016054e+000 -1.089013e+001  7.896561e+001
    endloop
  endfacet
  facet normal -5.344066e-001 -8.452275e-001  -0.000000e+000
    outer loop
      vertex  5.593306e+000 -1.343712e+001 -1.443439e+001
      vertex  5.593306e+000 -1.343712e+001  7.896561e+001
      vertex  3.707628e+000 -1.224487e+001 -1.443439e+001
    endloop
  endfacet
  facet normal -5.344066e-001 -8.452275e-001  0.000000e+000
    outer loop
      vertex  3.707628e+000 -1.224487e+001 -1.443439e+001
      vertex  5.593306e+000 -1.343712e+001  7.896561e+001
      vertex  3.707628e+000 -1.224487e+001  7.896561e+001
    endloop
  endfacet
  facet normal -4.450825e-001 -8.954896e-001  -0.000000e+000
    outer loop
      vertex  7.656093e+000 -1.446238e+001 -1.443439e+001
      vertex  7.656093e+000 -1.446238e+001  7.896561e+001
      vertex  5.593306e+000 -1.343712e+001 -1.443439e+001
    endloop
  endfacet
  facet normal -4.450825e-001 -8.954896e-001  0.000000e+000
    outer loop
      vertex  5.593306e+000 -1.343712e+001 -1.443439e+001
      vertex  7.656093e+000 -1.446238e+001  7.896561e+001
      vertex  5.593306e+000 -1.343712e+001  7.896561e+001
    endloop
  endfacet
  facet normal -3.590612e-001 -9.333140e-001  -0.000000e+000
    outer loop
      vertex  9.880110e+000 -1.531799e+001 -1.443439e+001
      vertex  9.880110e+000 -1.531799e+001  7.896561e+001
      vertex  7.656093e+000 -1.446238e+001 -1.443439e+001
    endloop
  endfacet
  facet normal -3.590612e-001 -9.333140e-001  0.000000e+000
    outer loop
      vertex  7.656093e+000 -1.446238e+001 -1.443439e+001
      vertex  9.880110e+000 -1.531799e+001  7.896561e+001
      vertex  7.656093e+000 -1.446238e+001  7.896561e+001
    endloop
  endfacet
  facet normal -2.777438e-001 -9.606552e-001  -0.000000e+000
    outer loop
      vertex  1.224954e+001 -1.600304e+001 -1.443439e+001
      vertex  1.224954e+001 -1.600304e+001  7.896561e+001
      vertex  9.880110e+000 -1.531799e+001 -1.443439e+001
    endloop
  endfacet
  facet normal -2.777438e-001 -9.606552e-001  0.000000e+000
    outer loop
      vertex  9.880110e+000 -1.531799e+001 -1.443439e+001
      vertex  1.224954e+001 -1.600304e+001  7.896561e+001
      vertex  9.880110e+000 -1.531799e+001  7.896561e+001
    endloop
  endfacet
  facet normal -2.021148e-001 -9.793618e-001  -0.000000e+000
    outer loop
      vertex  1.474915e+001 -1.651890e+001 -1.443439e+001
      vertex  1.474915e+001 -1.651890e+001  7.896561e+001
      vertex  1.224954e+001 -1.600304e+001 -1.443439e+001
    endloop
  endfacet
  facet normal -2.021148e-001 -9.793618e-001  0.000000e+000
    outer loop
      vertex  1.224954e+001 -1.600304e+001 -1.443439e+001
      vertex  1.474915e+001 -1.651890e+001  7.896561e+001
      vertex  1.224954e+001 -1.600304e+001  7.896561e+001
    endloop
  endfacet
  facet normal -1.326486e-001 -9.911631e-001  -0.000000e+000
    outer loop
      vertex  1.736383e+001 -1.686882e+001 -1.443439e+001
      vertex  1.736383e+001 -1.686882e+001  7.896561e+001
      vertex  1.474915e+001 -1.651890e+001 -1.443439e+001
    endloop
  endfacet
  facet normal -1.326486e-001 -9.911631e-001  0.000000e+000
    outer loop
      vertex  1.474915e+001 -1.651890e+001 -1.443439e+001
      vertex  1.736383e+001 -1.686882e+001  7.896561e+001
      vertex  1.474915e+001 -1.651890e+001  7.896561e+001
    endloop
  endfacet
endsolid CATIA STL
