  0
SECTION
  2
HEADER
  9
$EXTMIN
 10
    0.000000
 20
  -50.000000
  9
$EXTMAX
 10
  100.000000
 20
   50.000000
  0
ENDSEC
  0
SECTION
  2
TABLES
  0
ENDSEC
  0
SECTION
  2
ENTITIES
  0
POLYLINE
  8
0
 66
     1
  0
VERTEX
  8
0
 10
  100.000000
 20
    0.000000
  0
VERTEX
  8
0
 10
   99.845901
 20
    0.071120
  0
VERTEX
  8
0
 10
   99.384399
 20
    0.282956
  0
VERTEX
  8
0
 10
   98.618492
 20
    0.631825
  0
VERTEX
  8
0
 10
   97.552795
 20
    1.111631
  0
VERTEX
  8
0
 10
   96.194000
 20
    1.714119
  0
VERTEX
  8
0
 10
   94.550308
 20
    2.429129
  0
VERTEX
  8
0
 10
   92.632004
 20
    3.245231
  0
VERTEX
  8
0
 10
   90.450790
 20
    4.149979
  0
VERTEX
  8
0
 10
   88.020294
 20
    5.130039
  0
VERTEX
  8
0
 10
   85.355301
 20
    6.171692
  0
VERTEX
  8
0
 10
   82.472397
 20
    7.260844
  0
VERTEX
  8
0
 10
   79.389297
 20
    8.383524
  0
VERTEX
  8
0
 10
   76.124901
 20
    9.525126
  0
VERTEX
  8
0
 10
   72.699501
 20
   10.671302
  0
VERTEX
  8
0
 10
   69.134193
 20
   11.807318
  0
VERTEX
  8
0
 10
   65.450798
 20
   12.917805
  0
VERTEX
  8
0
 10
   61.672295
 20
   13.987271
  0
VERTEX
  8
0
 10
   57.821701
 20
   14.999334
  0
VERTEX
  8
0
 10
   53.923000
 20
   15.937228
  0
VERTEX
  8
0
 10
   50.000000
 20
   16.783558
  0
VERTEX
  8
0
 10
   46.077000
 20
   17.520792
  0
VERTEX
  8
0
 10
   42.178299
 20
   18.131916
  0
VERTEX
  8
0
 10
   38.327702
 20
   18.599911
  0
VERTEX
  8
0
 10
   34.549198
 20
   18.909283
  0
VERTEX
  8
0
 10
   30.865797
 20
   19.046316
  0
VERTEX
  8
0
 10
   27.300501
 20
   18.999580
  0
VERTEX
  8
0
 10
   23.875099
 20
   18.760439
  0
VERTEX
  8
0
 10
   20.610699
 20
   18.323561
  0
VERTEX
  8
0
 10
   17.527599
 20
   17.687290
  0
VERTEX
  8
0
 10
   14.644700
 20
   16.853788
  0
VERTEX
  8
0
 10
   11.979699
 20
   15.828519
  0
VERTEX
  8
0
 10
    9.549200
 20
   14.620495
  0
VERTEX
  8
0
 10
    7.368000
 20
   13.241402
  0
VERTEX
  8
0
 10
    5.449700
 20
   11.705080
  0
VERTEX
  8
0
 10
    3.806000
 20
   10.026523
  0
VERTEX
  8
0
 10
    2.447200
 20
    8.221090
  0
VERTEX
  8
0
 10
    1.381500
 20
    6.303646
  0
VERTEX
  8
0
 10
    0.615600
 20
    4.287267
  0
VERTEX
  8
0
 10
    0.154100
 20
    2.183384
  0
VERTEX
  8
0
 10
    0.000000
 20
    0.000000
  0
VERTEX
  8
0
 10
    0.154100
 20
   -2.183384
  0
VERTEX
  8
0
 10
    0.615600
 20
   -4.287267
  0
VERTEX
  8
0
 10
    1.381500
 20
   -6.303646
  0
VERTEX
  8
0
 10
    2.447200
 20
   -8.221090
  0
VERTEX
  8
0
 10
    3.806000
 20
  -10.026523
  0
VERTEX
  8
0
 10
    5.449700
 20
  -11.705080
  0
VERTEX
  8
0
 10
    7.368000
 20
  -13.241402
  0
VERTEX
  8
0
 10
    9.549200
 20
  -14.620495
  0
VERTEX
  8
0
 10
   11.979699
 20
  -15.828519
  0
VERTEX
  8
0
 10
   14.644700
 20
  -16.853788
  0
VERTEX
  8
0
 10
   17.527599
 20
  -17.687290
  0
VERTEX
  8
0
 10
   20.610699
 20
  -18.323561
  0
VERTEX
  8
0
 10
   23.875099
 20
  -18.760439
  0
VERTEX
  8
0
 10
   27.300501
 20
  -18.999580
  0
VERTEX
  8
0
 10
   30.865797
 20
  -19.046316
  0
VERTEX
  8
0
 10
   34.549198
 20
  -18.909283
  0
VERTEX
  8
0
 10
   38.327702
 20
  -18.599911
  0
VERTEX
  8
0
 10
   42.178299
 20
  -18.131916
  0
VERTEX
  8
0
 10
   46.077000
 20
  -17.520792
  0
VERTEX
  8
0
 10
   50.000000
 20
  -16.783558
  0
VERTEX
  8
0
 10
   53.923000
 20
  -15.937228
  0
VERTEX
  8
0
 10
   57.821701
 20
  -14.999334
  0
VERTEX
  8
0
 10
   61.672295
 20
  -13.987271
  0
VERTEX
  8
0
 10
   65.450798
 20
  -12.917805
  0
VERTEX
  8
0
 10
   69.134193
 20
  -11.807318
  0
VERTEX
  8
0
 10
   72.699501
 20
  -10.671302
  0
VERTEX
  8
0
 10
   76.124901
 20
   -9.525126
  0
VERTEX
  8
0
 10
   79.389297
 20
   -8.383524
  0
VERTEX
  8
0
 10
   82.472397
 20
   -7.260844
  0
VERTEX
  8
0
 10
   85.355301
 20
   -6.171692
  0
VERTEX
  8
0
 10
   88.020294
 20
   -5.130039
  0
VERTEX
  8
0
 10
   90.450790
 20
   -4.149979
  0
VERTEX
  8
0
 10
   92.632004
 20
   -3.245231
  0
VERTEX
  8
0
 10
   94.550308
 20
   -2.429129
  0
VERTEX
  8
0
 10
   96.194000
 20
   -1.714119
  0
VERTEX
  8
0
 10
   97.552795
 20
   -1.111631
  0
VERTEX
  8
0
 10
   98.618492
 20
   -0.631825
  0
VERTEX
  8
0
 10
   99.384399
 20
   -0.282956
  0
VERTEX
  8
0
 10
   99.845901
 20
   -0.071120
  0
VERTEX
  8
0
 10
  100.000000
 20
    0.000000
  0
SEQEND
  8
0
  0
ENDSEC
  0
EOF
