  0
SECTION
  2
HEADER
  9
$EXTMIN
 10
    0.000000
 20
  -50.000000
  9
$EXTMAX
 10
  100.000000
 20
   50.000000
  0
ENDSEC
  0
SECTION
  2
TABLES
  0
ENDSEC
  0
SECTION
  2
ENTITIES
  0
POLYLINE
  8
0
 66
     1
  0
VERTEX
  8
0
 10
  100.000000
 20
    0.000000
  0
VERTEX
  8
0
 10
   99.845901
 20
    0.033600
  0
VERTEX
  8
0
 10
   99.384399
 20
    0.133700
  0
VERTEX
  8
0
 10
   98.618492
 20
    0.298500
  0
VERTEX
  8
0
 10
   97.552795
 20
    0.525200
  0
VERTEX
  8
0
 10
   96.194000
 20
    0.809800
  0
VERTEX
  8
0
 10
   94.550293
 20
    1.147600
  0
VERTEX
  8
0
 10
   92.631996
 20
    1.533200
  0
VERTEX
  8
0
 10
   90.450790
 20
    1.960600
  0
VERTEX
  8
0
 10
   88.020294
 20
    2.423700
  0
VERTEX
  8
0
 10
   85.355293
 20
    2.915800
  0
VERTEX
  8
0
 10
   82.472397
 20
    3.430300
  0
VERTEX
  8
0
 10
   79.389297
 20
    3.960700
  0
VERTEX
  8
0
 10
   76.124893
 20
    4.500100
  0
VERTEX
  8
0
 10
   72.699501
 20
    5.041600
  0
VERTEX
  8
0
 10
   69.134201
 20
    5.578200
  0
VERTEX
  8
0
 10
   65.450798
 20
    6.102900
  0
VERTEX
  8
0
 10
   61.672298
 20
    6.608200
  0
VERTEX
  8
0
 10
   57.821697
 20
    7.086300
  0
VERTEX
  8
0
 10
   53.923000
 20
    7.529400
  0
VERTEX
  8
0
 10
   50.000000
 20
    7.929200
  0
VERTEX
  8
0
 10
   46.077000
 20
    8.277600
  0
VERTEX
  8
0
 10
   42.178299
 20
    8.566200
  0
VERTEX
  8
0
 10
   38.327698
 20
    8.787300
  0
VERTEX
  8
0
 10
   34.549202
 20
    8.933500
  0
VERTEX
  8
0
 10
   30.865801
 20
    8.998301
  0
VERTEX
  8
0
 10
   27.300501
 20
    8.976200
  0
VERTEX
  8
0
 10
   23.875099
 20
    8.863200
  0
VERTEX
  8
0
 10
   20.610699
 20
    8.656799
  0
VERTEX
  8
0
 10
   17.527599
 20
    8.356200
  0
VERTEX
  8
0
 10
   14.644700
 20
    7.962399
  0
VERTEX
  8
0
 10
   11.979700
 20
    7.478000
  0
VERTEX
  8
0
 10
    9.549199
 20
    6.907300
  0
VERTEX
  8
0
 10
    7.368000
 20
    6.255799
  0
VERTEX
  8
0
 10
    5.449699
 20
    5.530000
  0
VERTEX
  8
0
 10
    3.806000
 20
    4.737000
  0
VERTEX
  8
0
 10
    2.447200
 20
    3.884000
  0
VERTEX
  8
0
 10
    1.381500
 20
    2.978100
  0
VERTEX
  8
0
 10
    0.615600
 20
    2.025500
  0
VERTEX
  8
0
 10
    0.154100
 20
    1.031500
  0
VERTEX
  8
0
 10
    0.000000
 20
    0.000000
  0
VERTEX
  8
0
 10
    0.154100
 20
   -1.031500
  0
VERTEX
  8
0
 10
    0.615600
 20
   -2.025500
  0
VERTEX
  8
0
 10
    1.381500
 20
   -2.978100
  0
VERTEX
  8
0
 10
    2.447200
 20
   -3.884000
  0
VERTEX
  8
0
 10
    3.806000
 20
   -4.737000
  0
VERTEX
  8
0
 10
    5.449699
 20
   -5.530000
  0
VERTEX
  8
0
 10
    7.368000
 20
   -6.255799
  0
VERTEX
  8
0
 10
    9.549199
 20
   -6.907300
  0
VERTEX
  8
0
 10
   11.979700
 20
   -7.478000
  0
VERTEX
  8
0
 10
   14.644700
 20
   -7.962399
  0
VERTEX
  8
0
 10
   17.527599
 20
   -8.356200
  0
VERTEX
  8
0
 10
   20.610699
 20
   -8.656799
  0
VERTEX
  8
0
 10
   23.875099
 20
   -8.863200
  0
VERTEX
  8
0
 10
   27.300501
 20
   -8.976200
  0
VERTEX
  8
0
 10
   30.865801
 20
   -8.998301
  0
VERTEX
  8
0
 10
   34.549202
 20
   -8.933500
  0
VERTEX
  8
0
 10
   38.327698
 20
   -8.787300
  0
VERTEX
  8
0
 10
   42.178299
 20
   -8.566200
  0
VERTEX
  8
0
 10
   46.077000
 20
   -8.277600
  0
VERTEX
  8
0
 10
   50.000000
 20
   -7.929200
  0
VERTEX
  8
0
 10
   53.923000
 20
   -7.529400
  0
VERTEX
  8
0
 10
   57.821697
 20
   -7.086300
  0
VERTEX
  8
0
 10
   61.672298
 20
   -6.608200
  0
VERTEX
  8
0
 10
   65.450798
 20
   -6.102900
  0
VERTEX
  8
0
 10
   69.134201
 20
   -5.578200
  0
VERTEX
  8
0
 10
   72.699501
 20
   -5.041600
  0
VERTEX
  8
0
 10
   76.124893
 20
   -4.500100
  0
VERTEX
  8
0
 10
   79.389297
 20
   -3.960700
  0
VERTEX
  8
0
 10
   82.472397
 20
   -3.430300
  0
VERTEX
  8
0
 10
   85.355293
 20
   -2.915800
  0
VERTEX
  8
0
 10
   88.020294
 20
   -2.423700
  0
VERTEX
  8
0
 10
   90.450790
 20
   -1.960600
  0
VERTEX
  8
0
 10
   92.631996
 20
   -1.533200
  0
VERTEX
  8
0
 10
   94.550293
 20
   -1.147600
  0
VERTEX
  8
0
 10
   96.194000
 20
   -0.809800
  0
VERTEX
  8
0
 10
   97.552795
 20
   -0.525200
  0
VERTEX
  8
0
 10
   98.618492
 20
   -0.298500
  0
VERTEX
  8
0
 10
   99.384399
 20
   -0.133700
  0
VERTEX
  8
0
 10
   99.845901
 20
   -0.033600
  0
VERTEX
  8
0
 10
  100.000000
 20
    0.000000
  0
SEQEND
  8
0
  0
ENDSEC
  0
EOF
